# Blender v2.93.6 OBJ File: ''
# www.blender.org
mtllib link7.mtl
o link7_assm_with_adapter_long_Solidbody
v 0.049866 0.005340 -0.000000
v 0.045637 0.020524 0.000000
v -0.003271 0.050164 0.000000
v -0.049826 0.005704 -0.000000
v -0.049056 -0.010169 0.000000
v -0.042205 -0.027561 0.000000
v -0.013067 -0.048515 0.000000
v 0.031976 0.039369 0.000000
v 0.042423 -0.027208 0.000000
v 0.049162 -0.009628 0.000000
v 0.026185 -0.042764 -0.000000
v -0.027639 -0.041816 -0.000000
v -0.022201 0.044790 0.000001
v -0.036065 0.034838 0.000000
v -0.045272 0.021224 0.000000
v 0.008709 -0.049736 -0.000000
v 0.015724 0.047779 -0.000000
v -0.042742 -0.023705 0.109950
v -0.001598 0.048785 0.110124
v -0.011961 0.047501 0.109841
v 0.048686 0.001666 0.111421
v 0.047802 0.010334 0.110168
v 0.044221 0.020673 0.110078
v 0.036629 0.032781 0.110001
v 0.022599 0.043353 0.110216
v 0.009238 0.048035 0.110187
v -0.025203 0.041938 0.110087
v -0.036181 0.032552 0.111527
v -0.045776 0.017621 0.110550
v -0.048926 0.000172 0.109982
v -0.046639 -0.014232 0.111408
v -0.026196 0.038434 0.114564
v -0.011923 0.045243 0.114194
v 0.017955 0.043359 0.114212
v 0.032477 0.033680 0.114187
v 0.040277 0.023181 0.114486
v 0.044909 0.011657 0.114517
v 0.047656 -0.011039 0.110131
v 0.042652 -0.023937 0.110160
v 0.036289 -0.032676 0.109977
v 0.028329 -0.039882 0.110127
v 0.018962 -0.045053 0.109882
v 0.004960 -0.048871 0.110143
v -0.012710 -0.047231 0.110139
v -0.025677 -0.041672 0.110033
v -0.036457 -0.032633 0.110080
v -0.046745 -0.001830 0.114321
v -0.024079 -0.040032 0.114232
v -0.009568 -0.045307 0.114768
v 0.018363 -0.043352 0.114079
v 0.032700 -0.033293 0.114308
v 0.046186 -0.004354 0.114506
v 0.001716 -0.046600 0.114295
v -0.041265 -0.021639 0.114344
v -0.011325 -0.028576 0.123996
v 0.013078 -0.028717 0.124046
v -0.027014 0.015541 0.124006
v -0.028881 -0.012645 0.124049
v -0.008012 0.030089 0.124009
v 0.011693 0.028479 0.123996
v 0.029481 0.011680 0.124006
v 0.028326 -0.011940 0.123995
v 0.042026 -0.020501 0.114341
v 0.000945 0.046467 0.114491
v -0.039530 0.024589 0.114399
v -0.044510 0.012652 0.114908
v -0.035031 -0.030485 0.114588
vn 0.0067 0.0087 -0.9999
vn 0.0067 -0.0087 -0.9999
vn 0.0000 -0.0000 -1.0000
vn 0.0095 0.0054 -0.9999
vn 0.0007 -0.0111 -0.9999
vn 0.0103 0.0037 -0.9999
vn 0.0109 0.0015 -0.9999
vn 0.0110 -0.0004 -0.9999
vn 0.0108 -0.0021 -0.9999
vn -0.0089 -0.0065 -0.9999
vn 0.0103 -0.0038 -0.9999
vn 0.0095 -0.0055 -0.9999
vn 0.0007 -0.0109 -0.9999
vn -0.0001 -0.0000 -1.0000
vn 0.9965 -0.0821 0.0126
vn 0.9965 -0.0830 0.0016
vn 0.9256 -0.3439 0.1583
vn 0.9337 -0.3579 0.0082
vn 0.9365 -0.3507 0.0003
vn 0.9323 -0.3616 0.0088
vn 0.9622 -0.2506 0.1066
vn 0.8605 -0.4946 0.1223
vn 0.8081 -0.5888 0.0158
vn 0.8084 -0.5887 0.0046
vn 0.0008 0.0015 1.0000
vn -0.0000 -0.0002 1.0000
vn 0.0015 -0.0017 1.0000
vn 0.0032 -0.0022 1.0000
vn -0.0020 0.0018 1.0000
vn 0.0040 -0.0006 1.0000
vn 0.3705 -0.9288 0.0050
vn 0.3781 -0.9257 -0.0023
vn 0.4596 0.8881 0.0070
vn 0.4772 0.8787 -0.0128
vn 0.1004 0.5509 0.8285
vn 0.0403 0.4855 0.8733
vn 0.1246 0.9922 0.0034
vn 0.1246 0.9922 0.0050
vn -0.9595 0.2815 0.0048
vn -0.9617 0.2741 -0.0031
vn -0.3871 0.9220 0.0133
vn -0.3874 0.9219 0.0024
vn -0.3950 -0.9186 0.0108
vn -0.3941 -0.9190 0.0120
vn -0.4176 -0.9086 0.0086
vn -0.4489 -0.2930 0.8442
vn -0.0169 -0.4703 0.8823
vn -0.7202 -0.6846 0.1127
vn -0.6424 -0.7663 0.0125
vn -0.6935 -0.7038 0.1540
vn -0.6994 -0.7147 0.0036
vn -0.5337 0.2584 0.8053
vn -0.4787 0.2358 0.8457
vn -0.4930 0.2498 0.8334
vn -0.9243 -0.3816 0.0089
vn -0.9304 -0.3665 0.0068
vn -0.9988 -0.0484 0.0057
vn 0.3307 0.9436 0.0173
vn 0.3810 -0.3161 0.8688
vn 0.3760 -0.3102 0.8732
vn 0.4744 -0.0148 0.8802
vn 0.4769 -0.0237 0.8786
vn 0.4732 -0.0229 0.8806
vn 0.5126 0.2083 0.8329
vn 0.5080 0.2125 0.8347
vn 0.5182 0.2461 0.8191
vn -0.0046 -0.4833 0.8754
vn 0.9945 0.1035 0.0139
vn 0.9947 0.1031 0.0030
vn -0.1953 0.7186 0.6674
vn -0.5282 0.7776 0.3410
vn -0.4126 0.5925 0.6918
vn 0.4945 0.5440 0.6779
vn 0.5173 0.7690 0.3755
vn 0.2887 0.6898 0.6639
vn 0.6899 0.4210 0.5889
vn 0.8497 0.4201 0.3186
vn 0.7593 0.6189 0.2011
vn 0.0628 0.7788 0.6241
vn 0.1331 0.9152 0.3804
vn -0.0414 0.9665 0.2533
vn -0.1976 0.9335 0.2992
vn -0.6942 0.6407 0.3279
vn -0.8477 -0.2006 0.4911
vn -0.7287 -0.0240 0.6844
vn -0.9645 -0.0058 0.2639
vn 0.0741 -0.9669 0.2443
vn -0.1875 -0.7864 0.5885
vn -0.1833 -0.9236 0.3367
vn 0.3766 -0.9178 0.1259
vn 0.2959 -0.7024 0.6474
vn 0.5461 -0.7958 0.2615
vn 0.7505 -0.4463 0.4873
vn 0.5612 -0.6041 0.5657
vn 0.6963 -0.6429 0.3193
vn 0.8145 -0.2080 0.5416
vn 0.7544 -0.3056 0.5810
vn 0.7406 -0.0919 0.6656
vn 0.7741 0.0408 0.6318
vn 0.7433 0.1713 0.6466
vn 0.0562 -0.8376 0.5434
vn -0.6112 0.5151 0.6009
vn -0.8848 0.3560 0.3007
vn -0.7539 0.1298 0.6440
vn 0.9989 -0.0470 0.0090
vn 0.9985 -0.0553 0.0019
vn 0.9992 -0.0393 0.0012
vn 0.0048 0.0099 -0.9999
vn 0.3459 -0.3513 -0.8700
vn 0.6629 -0.7380 -0.1262
vn 0.0083 0.0072 -0.9999
vn -0.0195 -0.5923 -0.8055
vn -0.0776 -0.9274 -0.3659
vn 0.0083 -0.0071 -0.9999
vn -0.2373 0.8153 -0.5281
vn -0.1458 0.6228 -0.7687
vn 0.0039 -0.0102 -0.9999
vn 0.4182 0.3269 -0.8475
vn 0.6905 0.3224 -0.6475
vn 0.9140 0.3096 0.2624
vn -0.4696 -0.7444 0.4747
vn -0.5456 -0.5269 0.6517
vn -0.7077 -0.5943 0.3821
vn 0.5103 -0.1401 0.8485
vn -0.2796 -0.4128 0.8669
vn -0.3892 -0.6216 0.6798
vn 0.0001 0.0015 1.0000
vn -0.2232 0.0209 0.9745
vn -0.3369 -0.0408 0.9407
vn -0.3217 0.3835 0.8657
vn -0.2101 0.4524 0.8667
vn 0.9633 0.2683 0.0059
vn 0.2529 0.4241 0.8696
vn 0.2157 -0.4952 0.8416
vn -0.7215 -0.3336 0.6068
vn -0.7743 -0.5602 0.2942
vn -0.8177 -0.5754 0.0162
vn -0.9877 -0.1552 0.0158
vn -0.7333 0.6798 0.0111
vn -0.8352 0.5497 0.0122
vn 0.3531 0.3693 0.8596
vn -0.9841 0.1777 0.0059
vn -0.6139 0.7893 0.0097
vn -0.3168 -0.3704 0.8732
vn 0.5162 0.0452 0.8553
usemtl robot
s off
f 10//1 11//2 16//3
f 10//4 7//5 12//3
f 10//6 12//3 6//3
f 10//7 6//3 5//3
f 10//8 5//3 4//3
f 10//9 4//10 15//3
f 10//11 15//3 14//3
f 10//12 14//3 13//3
f 10//2 3//3 17//3
f 10//13 2//14 1//14
f 21//15 38//15 10//16
f 38//17 9//18 10//19
f 39//20 9//20 38//21
f 39//22 40//23 9//24
f 61//25 60//25 59//25
f 61//26 59//26 57//26
f 61//27 58//28 55//27
f 61//29 55//29 56//29
f 61//30 56//30 62//30
f 42//31 16//31 11//32
f 25//33 8//34 17//33
f 64//35 59//36 60//36
f 26//37 17//38 3//38
f 29//39 15//39 4//40
f 27//41 20//41 13//42
f 44//43 45//44 7//44
f 45//45 12//45 7//45
f 54//46 67//46 58//46
f 53//47 56//47 49//47
f 46//48 12//49 45//49
f 46//50 6//51 12//51
f 65//52 66//53 57//54
f 18//55 31//55 6//55
f 5//56 6//56 31//56
f 30//57 4//57 5//57
f 26//58 25//58 17//58
f 63//59 62//59 56//59 51//60
f 61//61 62//62 52//63
f 61//64 37//65 36//66
f 49//67 56//67 55//67
f 22//68 21//68 1//69
s 1
f 33//70 27//71 32//72
f 35//73 25//74 34//75
f 36//76 23//77 24//78
f 25//74 35//73 24//78
f 64//79 26//80 19//81
f 27//71 33//70 20//82
f 28//83 32//72 27//71
f 31//84 47//85 30//86
f 43//87 49//88 44//89
f 42//90 50//91 43//87
f 41//92 50//91 42//90
f 39//93 51//94 40//95
f 38//96 63//97 39//93
f 52//98 21//99 37//100
f 63//97 38//96 52//98
f 51//94 39//93 63//97
f 49//88 43//87 53//101
f 65//102 29//103 66//104
f 21//105 10//106 1//107
f 10//108 9//109 11//110
f 10//111 16//112 7//113
f 10//114 13//115 3//116
f 10//117 17//3 8//118
f 10//117 8//118 2//119
f 20//82 3//116 13//115
f 23//77 22//120 2//119
f 50//91 41//92 51//94
f 24//78 23//77 2//119
f 45//121 67//122 46//123
f 62//124 63//97 52//98
f 49//88 55//125 48//126
f 61//127 57//128 58//129
f 37//100 23//77 36//76
f 32//72 57//130 59//131
f 41//92 42//90 11//110
f 29//103 47//85 66//104
f 42//90 43//87 16//112
f 22//120 1//132 2//119
f 34//75 64//79 60//133
f 53//101 50//91 56//134
f 34//75 26//80 64//79
f 19//81 26//80 3//116
f 44//89 48//126 45//121
f 21//99 22//120 37//100
f 20//82 19//81 3//116
f 65//102 57//130 32//72
f 40//95 51//94 41//92
f 31//84 54//135 47//85
f 33//70 19//81 20//82
f 65//102 28//83 29//103
f 43//87 50//91 53//101
f 46//123 54//135 18//136
f 47//85 54//135 58//129
f 24//78 8//118 25//74
f 66//104 47//85 58//129
f 18//136 6//137 46//123
f 5//138 31//84 30//86
f 9//109 40//95 41//92 11//110
f 34//75 25//74 26//80
f 45//121 48//126 67//122
f 28//83 14//139 15//140 29//103
f 36//76 35//73 61//141
f 35//73 34//75 60//133 61//141
f 30//86 29//103 4//142
f 24//78 2//119 8//118
f 64//79 33//70 59//131
f 65//102 32//72 28//83
f 37//100 22//120 23//77
f 56//134 50//91 51//94
f 29//103 30//86 47//85
f 44//89 49//88 48//126
f 14//139 28//83 27//71 13//143
f 35//73 36//76 24//78
f 33//70 32//72 59//131
f 58//144 67//122 48//126 55//125
f 31//84 18//136 54//135
f 7//113 16//112 43//87 44//89
f 52//98 38//96 21//99
f 61//145 52//98 37//100
f 33//70 64//79 19//81
f 46//123 67//122 54//135
f 66//104 58//129 57//128
