# Blender v2.93.6 OBJ File: ''
# www.blender.org
mtllib link6r.mtl
o link6r
v -0.046273 -0.060738 -0.017983
v -0.028539 -0.060371 -0.040621
v 0.009896 -0.057459 -0.048769
v 0.047059 -0.059235 -0.016198
v 0.035208 -0.057297 -0.035205
v -0.003851 0.000000 -0.049986
v -0.047071 0.000000 -0.017569
v 0.014216 0.000000 -0.048347
v -0.050075 0.000119 -0.000100
v -0.050006 -0.021832 0.123639
v -0.050000 -0.037067 0.147613
v 0.044418 -0.000000 -0.023544
v 0.049851 0.000002 -0.004882
v -0.050000 -0.104825 0.146112
v -0.050000 -0.069481 0.160195
v -0.050027 -0.117532 0.094119
v -0.050000 -0.048152 0.155196
v -0.050000 -0.028810 0.138794
v -0.050000 -0.086815 0.157258
v -0.050000 -0.118796 0.121279
v -0.050000 -0.119881 0.105990
v -0.050000 -0.113280 0.134940
v 0.049758 -0.063670 0.158885
v 0.005043 -0.020565 0.121221
v 0.048270 -0.037432 0.147426
v 0.049680 -0.107567 0.142018
v 0.048639 -0.082923 0.157777
v 0.049230 -0.054266 0.156803
v 0.049726 -0.073292 0.159254
v 0.047922 -0.030489 0.140174
v 0.043006 -0.025202 0.132105
v 0.048264 -0.117745 0.096533
v 0.049178 -0.091975 0.154220
v 0.051264 -0.100586 0.148428
v 0.049207 -0.119022 0.116268
v 0.049227 -0.116569 0.126380
v 0.045999 -0.112983 0.134765
v 0.049467 -0.119254 0.106043
v -0.009665 0.000002 0.049764
v -0.041400 -0.000009 0.030511
v 0.048723 0.000001 0.012388
v -0.023502 -0.000000 -0.044516
v 0.032343 -0.000000 -0.038343
v 0.034522 -0.000002 0.037448
v 0.012557 -0.000000 0.048575
v -0.039240 -0.000000 -0.031377
v 0.019678 -0.060500 -0.045578
v 0.028306 -0.060321 -0.040799
v 0.003590 -0.077283 -0.039519
v 0.030073 -0.073821 -0.034141
v 0.034838 -0.067705 -0.033960
v 0.022777 -0.070643 -0.041799
v 0.018920 -0.075309 -0.039307
v 0.003170 -0.074934 -0.044157
v 0.013201 -0.067132 -0.046896
v 0.008310 -0.070757 -0.046827
v -0.023869 -0.070406 -0.041205
v -0.013563 -0.070788 -0.045609
v -0.001796 -0.071216 -0.047338
v -0.019419 -0.061251 -0.045667
v -0.014230 -0.075414 -0.041098
v -0.028274 -0.074095 -0.035367
v -0.034242 -0.075424 -0.026788
v -0.041678 -0.060352 -0.027030
v -0.035057 -0.067688 -0.033744
v -0.040126 -0.071157 -0.025246
v -0.045928 -0.069315 -0.014422
v 0.037049 -0.073108 -0.027283
v 0.043263 -0.070151 -0.020547
v 0.042536 -0.061072 -0.025670
v 0.001206 -0.060450 -0.049710
v -0.008861 -0.060371 -0.048862
v -0.035203 -0.057292 -0.035210
v -0.048893 -0.059933 -0.009341
v 0.056963 -0.082124 0.155448
v 0.061563 -0.093663 0.146809
v 0.062617 -0.077732 0.152090
v 0.057360 -0.104363 0.141891
v 0.057510 -0.092420 0.151045
v 0.063032 -0.062104 0.151574
v 0.057192 -0.055362 0.154543
v 0.062849 -0.049624 0.147099
v 0.056935 -0.046396 0.150705
v 0.057103 -0.068889 0.157154
v 0.050002 -0.044625 0.152312
v 0.057573 -0.115919 0.119348
v 0.060225 -0.107503 0.135079
v 0.054091 -0.112863 0.132081
v 0.061556 -0.112759 0.119320
v 0.057056 -0.116873 0.106744
v 0.062916 -0.112310 0.108236
v 0.051578 -0.022941 0.123912
v 0.053740 -0.026467 0.130898
v 0.062809 -0.033703 0.131803
v 0.062734 -0.040936 0.141142
v 0.057099 -0.035842 0.142541
v 0.063004 -0.029051 0.120934
v 0.063272 -0.108871 0.093946
v 0.057202 -0.115044 0.096789
v 0.058515 -0.026243 0.125371
v 0.072053 -0.069348 0.112162
v 0.070106 -0.087892 0.122680
v 0.064037 -0.096407 0.141187
v 0.067684 -0.088966 0.136811
v 0.070168 -0.070043 0.132028
v 0.067106 -0.064442 0.143961
v 0.070699 -0.059727 0.123819
v 0.070943 -0.085347 0.106932
v 0.069175 -0.096450 0.108403
v 0.067062 -0.102965 0.118847
v 0.064109 -0.107422 0.125552
v 0.067934 -0.047365 0.132137
v 0.067728 -0.038058 0.116472
v 0.071942 -0.070904 0.105426
v 0.067218 -0.101304 0.096588
v 0.070180 -0.048096 0.111393
v 0.070657 -0.071973 0.091712
v 0.068942 -0.088627 0.089702
v 0.070614 -0.055606 0.099175
vn 0.9768 -0.0051 -0.2142
vn 0.9962 -0.0839 0.0252
vn 0.9955 -0.0855 0.0399
vn 0.9958 -0.0821 0.0397
vn 0.9937 0.0167 0.1111
vn 0.9948 0.0252 0.0987
vn 0.9943 0.0429 0.0976
vn 0.9846 0.0610 -0.1641
vn 0.9848 0.0742 -0.1569
vn -0.0054 0.9999 -0.0116
vn 0.0001 1.0000 -0.0001
vn -0.0077 0.9999 -0.0101
vn -0.0000 1.0000 -0.0000
vn -0.0110 0.9999 -0.0064
vn -0.0148 0.9999 0.0053
vn -0.0113 0.9999 0.0040
vn 0.0050 0.9999 0.0154
vn 0.0014 1.0000 0.0038
vn -0.0122 0.9999 0.0040
vn 0.0278 0.9995 0.0130
vn -0.0002 1.0000 -0.0002
vn 0.9738 0.2156 -0.0726
vn 0.9759 0.1996 -0.0880
vn 0.9506 -0.2649 0.1617
vn 0.9675 -0.2058 0.1468
vn 0.9616 -0.2316 0.1472
vn -0.0099 0.9604 0.2785
vn -0.0132 0.9570 0.2897
vn 0.7986 0.5975 0.0725
vn 0.8043 0.5919 0.0526
vn 0.8882 0.4593 0.0132
vn 0.9275 -0.2678 -0.2609
vn 0.9362 -0.2343 -0.2621
vn 0.9163 -0.3042 -0.2606
vn 0.9087 -0.4150 0.0444
vn 0.8952 -0.4378 -0.0831
vn 0.9005 -0.4200 -0.1125
vn 0.9401 -0.2246 -0.2566
vn 0.9513 -0.2025 -0.2324
vn 0.7472 -0.4561 0.4834
vn 0.6550 -0.5258 0.5427
vn 0.6563 -0.5194 0.5473
vn 0.6136 0.7792 0.1278
vn 0.6138 0.7788 0.1296
vn -0.0052 0.9083 0.4183
vn -0.0114 0.9133 0.4071
vn 0.8542 -0.2090 0.4761
vn 0.8508 -0.2152 0.4794
vn 0.8912 -0.0962 0.4434
vn 0.4301 -0.8318 -0.3510
vn 0.4282 -0.8288 -0.3601
vn -0.6575 -0.1142 -0.7447
vn -0.6358 -0.1078 -0.7643
vn -0.6971 -0.1693 -0.6967
vn 0.3928 0.9027 0.1756
vn 0.3983 0.9016 0.1687
vn 0.3213 0.5763 0.7514
vn 0.3143 0.5825 0.7496
vn 0.2752 0.5992 0.7518
vn -0.7815 -0.0134 -0.6237
vn 0.1409 0.8729 0.4671
vn 0.1721 0.8321 0.5272
vn 0.1554 0.8670 0.4734
vn -0.9572 -0.0106 -0.2892
vn -0.9548 -0.0188 -0.2965
vn -0.1497 -0.2326 -0.9610
vn -0.1618 -0.2265 -0.9605
vn -0.1369 -0.2294 -0.9637
vn 0.1864 -0.8303 0.5253
vn 0.2399 -0.8386 0.4891
vn 0.1867 -0.8267 0.5307
vn 0.9961 0.0847 -0.0257
vn 0.9962 0.0844 -0.0197
vn 0.9960 0.0817 -0.0374
vn 0.9963 0.0829 -0.0227
vn 0.0026 0.7224 0.6915
vn -0.0057 0.7177 0.6963
vn 0.0037 0.5646 0.8254
vn 0.0040 0.5626 0.8267
vn 0.0241 0.5393 0.8418
vn 0.0109 0.0383 0.9992
vn 0.0014 -0.1671 0.9859
vn 0.0035 -0.1520 0.9884
vn 0.0028 -0.7974 0.6035
vn 0.0036 -0.8022 0.5971
vn 0.0116 -0.6777 0.7352
vn 0.0040 0.7300 0.6834
vn -1.0000 0.0001 0.0005
vn -0.9265 0.3553 -0.1236
vn -1.0000 -0.0000 0.0000
vn 0.0095 -0.3652 0.9309
vn 0.0086 -0.9571 -0.2898
vn 0.0050 -0.9581 -0.2866
vn -0.0715 -0.9468 -0.3138
vn -0.0915 -0.0200 -0.9956
vn -0.0840 -0.0116 -0.9964
vn -0.0034 0.9157 0.4020
vn -0.0071 0.9209 0.3898
vn -0.3449 -0.8724 -0.3464
vn -0.3032 -0.8869 -0.3485
vn -0.2259 -0.9115 -0.3437
vn -0.1646 -0.8974 -0.4093
vn 0.1254 -0.9390 -0.3204
vn -0.9497 -0.1519 -0.2738
vn -0.9542 -0.1322 -0.2684
vn -0.9674 -0.1185 -0.2240
vn -0.9634 -0.2296 -0.1384
vn -0.1306 0.9679 0.2147
vn -0.1294 0.9609 0.2449
vn -0.5163 0.8432 0.1499
vn -0.5162 0.8410 0.1618
vn 0.1080 -0.0008 -0.9942
vn -1.0000 0.0000 0.0006
vn -0.9263 0.1685 0.3370
vn -0.9997 -0.0166 -0.0202
vn 0.4824 0.0034 -0.8759
vn 0.4836 0.0034 -0.8753
vn 0.9829 -0.0882 0.1617
vn 0.9824 -0.0943 0.1610
vn 0.9843 -0.0786 0.1583
vn 0.9649 0.1159 0.2358
vn 0.9752 0.0733 0.2088
vn 0.9771 0.1086 0.1831
vn 0.8678 -0.1070 0.4852
vn 0.9368 -0.0869 0.3388
vn 0.9189 -0.0580 0.3901
vn 0.8784 -0.4724 0.0728
vn 0.8891 -0.4470 0.0986
vn 0.8651 -0.5009 -0.0244
vn 0.9166 -0.3962 -0.0542
vn 0.9147 -0.4041 0.0088
vn 0.0272 0.9611 0.2749
vn 0.0328 0.9612 0.2740
vn 0.0231 0.9616 0.2736
vn -0.0011 0.2245 0.9745
vn 0.0279 0.2521 0.9673
vn 0.0023 -0.9242 0.3819
vn -0.6374 0.0050 -0.7706
vn -0.6343 -0.0053 -0.7731
vn 0.7686 -0.1028 -0.6315
vn -0.8914 -0.0086 -0.4531
vn 0.1699 0.4533 0.8750
vn 0.0113 0.4215 0.9068
vn 0.1672 0.3111 0.9356
vn 0.9504 0.1375 -0.2791
vn 0.6578 0.6664 -0.3511
vn 0.7640 0.1222 -0.6336
vn -0.0095 0.9999 -0.0085
vn -0.1556 0.8257 -0.5423
vn -0.2707 0.4179 -0.8672
vn -0.0116 0.9999 -0.0076
vn -0.5675 0.7638 -0.3074
vn -0.6706 0.7017 -0.2405
vn -0.7082 0.6946 -0.1265
vn -0.0096 0.9999 0.0084
vn 0.0001 1.0000 0.0001
vn 0.0529 0.9944 0.0920
vn 0.1559 0.9821 0.1061
vn 0.0572 0.9978 0.0325
vn -0.4029 -0.1058 -0.9091
vn -0.5211 -0.1224 -0.8447
vn 0.1961 0.9580 0.2091
vn 0.1739 0.9182 0.3559
vn 0.0730 0.9438 0.3223
vn 0.3609 0.8248 0.4353
vn 0.0974 0.0956 -0.9906
vn 0.0900 -0.0054 -0.9959
vn 0.0903 0.0030 -0.9959
vn 0.0370 0.9539 0.2979
vn -1.0000 -0.0003 0.0009
vn -0.6360 -0.7591 -0.1390
vn -0.6823 -0.7299 -0.0419
vn -0.7477 -0.6627 0.0422
vn -1.0000 0.0005 0.0007
vn -0.9948 -0.0892 0.0488
vn -1.0000 0.0008 0.0001
vn -0.9949 -0.0431 0.0916
vn 0.0067 0.8383 0.5452
vn -0.0125 0.8397 0.5429
vn 0.0066 0.8373 0.5467
vn 0.2965 -0.0153 -0.9549
vn 0.3904 -0.1150 -0.9134
vn 0.2388 -0.0710 -0.9685
vn 0.7010 -0.0438 -0.7119
vn 0.5789 -0.1171 -0.8069
vn -0.8699 -0.0004 -0.4933
vn 0.9128 -0.0566 -0.4044
vn 0.8468 -0.1022 -0.5220
vn -0.9855 0.0067 -0.1695
vn -0.2628 -0.0701 -0.9623
vn 0.2013 -0.9721 -0.1207
vn 0.1728 -0.9480 -0.2671
vn 0.0006 -0.5368 0.8437
vn 0.2525 -0.5882 0.7683
vn 0.1614 -0.4522 0.8772
vn 0.1614 -0.9777 0.1341
vn 0.1470 -0.9364 0.3187
vn 0.2564 -0.7384 -0.6238
vn -0.0050 -0.9061 -0.4231
vn 0.0287 -0.7691 -0.6385
vn 0.1528 -0.4537 -0.8780
vn 0.4389 -0.4288 -0.7896
vn 0.2918 -0.2580 -0.9210
vn 0.4572 -0.6969 -0.5526
vn 0.6794 -0.3267 -0.6571
vn -0.2627 -0.5250 -0.8095
vn -0.2434 -0.6895 -0.6822
vn -0.0653 -0.5028 -0.8619
vn -0.4627 -0.4291 -0.7758
vn -0.5613 -0.5269 -0.6382
vn 0.0504 -0.1542 -0.9868
vn -0.1401 -0.1628 -0.9767
vn -0.8302 -0.1356 -0.5408
vn -0.6599 -0.3346 -0.6727
vn -0.7461 -0.4854 -0.4558
vn 0.5971 -0.4366 0.6729
vn 0.4840 -0.4022 0.7772
vn 0.4926 -0.6232 0.6075
vn 0.7397 0.1369 0.6588
vn 0.4729 0.2818 0.8348
vn 0.4871 0.0416 0.8723
vn 0.5112 0.3914 0.7652
vn 0.6687 -0.1136 0.7348
vn 0.6302 -0.6532 0.4198
vn 0.3633 -0.8459 0.3904
vn 0.4625 -0.8690 0.1761
vn 0.7259 -0.6717 0.1480
vn 0.5390 0.7581 0.3672
vn 0.4829 0.6414 0.5962
vn 0.7835 0.4821 0.3920
vn 0.7837 0.4982 0.3710
vn 0.2639 0.7436 0.6143
vn 0.4733 -0.8484 -0.2371
vn 0.6611 -0.7500 -0.0227
vn 0.4729 -0.8780 -0.0736
vn 0.7403 -0.6259 -0.2455
vn 0.9793 -0.1979 0.0423
vn 0.9636 -0.2668 0.0172
vn 0.9745 -0.2246 -0.0000
vn 0.9781 -0.1910 -0.0825
vn 0.9835 -0.0999 -0.1511
vn 0.9891 0.0956 0.1122
vn 0.9948 0.0928 0.0420
vn 0.9808 0.1940 0.0215
vn 0.9916 -0.1229 -0.0397
vn 0.9895 -0.0426 -0.1379
vn 0.9975 -0.0460 -0.0535
vn 0.9792 0.0794 0.1869
vn 0.9500 0.2156 0.2257
vn 0.9485 0.3038 0.0901
vn 0.9625 0.2648 -0.0587
vn 0.9647 -0.0514 0.2581
vn 0.9650 -0.0343 0.2601
vn 0.9502 -0.0552 0.3067
vn 0.9724 -0.0734 -0.2213
vn 0.8314 0.4960 0.2504
vn 0.9132 0.0768 0.4001
vn 0.8022 0.2481 0.5431
vn 0.8575 -0.3589 0.3686
vn 0.9218 -0.2237 0.3166
vn 0.9003 -0.0526 0.4321
vn 0.7753 -0.4533 -0.4398
vn 0.8925 -0.3796 -0.2437
vn 0.8650 -0.4851 0.1283
vn 0.9246 -0.3347 0.1821
vn 0.4630 -0.2301 0.8560
vn 0.7295 -0.4552 -0.5104
vn 0.2832 -0.2596 0.9233
vn 0.3128 -0.7318 0.6054
vn 0.3043 0.1442 0.9416
vn 0.2691 -0.0679 0.9607
vn 0.2647 0.6166 0.7415
vn 0.3098 0.5842 0.7502
vn 0.1587 -0.8842 0.4394
vn -0.6043 -0.6604 -0.4457
vn -0.8068 -0.4679 -0.3607
vn -0.6813 -0.6539 -0.3289
vn -0.8842 -0.1867 -0.4281
vn 0.9941 -0.0399 0.1008
vn 0.9934 -0.0654 0.0939
vn 0.9941 -0.0531 0.0945
vn -0.7392 -0.1072 -0.6649
vn 0.9974 -0.0724 0.0065
vn 0.9934 0.0602 -0.0972
usemtl robot
s off
f 117//1 4//1 13//1
f 108//2 101//3 102//4
f 105//5 101//6 107//7
f 117//8 13//9 119//9
f 13//10 43//11 8//11
f 13//12 8//13 6//13
f 13//14 42//15 46//13
f 13//16 9//17 40//18
f 13//19 40//20 39//21
f 116//22 119//23 13//23
f 110//24 102//25 104//26
f 24//27 39//28 10//27
f 41//29 97//30 13//30
f 97//31 113//31 13//31
f 69//32 118//33 115//34
f 91//35 98//36 115//37
f 69//38 4//38 118//39
f 103//40 76//41 87//42
f 100//43 97//43 41//44
f 18//45 31//46 10//45
f 76//47 103//48 77//49
f 68//50 99//51 50//50
f 73//52 2//53 65//54
f 41//55 92//56 100//55
f 85//57 83//58 96//59
f 46//60 73//60 64//60
f 31//61 30//62 93//63
f 7//64 1//65 74//64
f 72//66 59//67 58//68
f 37//69 88//70 26//71
f 101//72 114//73 119//74 116//75
f 18//76 25//76 30//77
f 25//78 11//78 17//78
f 25//79 17//79 85//80
f 15//81 29//81 23//81
f 15//82 19//82 27//82
f 15//83 27//83 29//83
f 26//84 14//84 22//84
f 26//85 22//85 37//85
f 34//86 14//86 26//86
f 11//87 25//87 18//87
f 18//88 10//89 16//88
f 18//90 20//90 22//90
f 18//90 14//90 19//90
f 18//90 15//90 17//90
f 18//90 17//90 11//90
f 27//91 19//91 33//91
f 16//92 49//93 32//93
f 16//94 61//94 49//94
f 72//95 6//96 71//96
f 24//97 10//97 31//98
f 63//99 62//100 16//100
f 62//101 61//102 16//101
f 53//103 32//103 49//103
f 1//104 67//105 74//106
f 74//107 67//107 16//107
f 39//108 40//109 10//108
f 40//110 9//111 10//110
f 8//112 3//112 71//112
f 16//113 10//114 9//113
f 16//115 9//115 74//115
f 48//116 47//117 8//117 43//117
f 102//118 105//119 104//120
f 106//121 105//122 112//123
f 77//124 104//125 106//126
f 111//127 91//127 110//128
f 91//129 115//130 110//131
f 45//132 39//132 24//133 92//134
f 15//135 23//135 28//136 17//135
f 22//137 20//137 36//137 37//137
f 73//138 46//138 42//138 2//139
f 5//140 70//140 51//140
f 7//141 64//141 1//141
s 1
f 85//142 17//143 28//144
f 13//145 12//146 43//147
f 13//148 6//149 42//150
f 13//151 46//152 7//153
f 13//151 7//153 9//154
f 13//155 39//156 45//157
f 13//155 45//157 44//158
f 13//155 44//158 41//159
f 42//150 60//160 2//161
f 41//159 44//158 92//162
f 92//163 31//164 93//165
f 6//166 8//167 71//168
f 24//169 31//164 92//163
f 18//170 16//171 21//172
f 18//170 21//172 20//173
f 18//90 22//174 14//175
f 18//90 19//176 15//177
f 18//178 30//179 31//180
f 8//181 47//182 3//183
f 43//147 5//184 48//185
f 7//153 46//152 64//186
f 12//146 4//187 70//188
f 7//153 74//189 9//154
f 72//190 60//160 42//150 6//149
f 44//158 45//157 92//162
f 38//191 21//172 16//171 32//192
f 14//193 34//194 33//195 19//193
f 35//196 20//173 21//172 38//191
f 35//196 36//197 20//173
f 5//184 43//147 12//146 70//188
f 12//146 13//145 4//187
usemtl robot
f 53//198 49//199 54//200
f 53//198 56//201 52//202
f 56//201 53//198 54//200
f 52//202 56//201 55//203
f 50//204 52//202 51//205
f 53//198 52//202 50//204
f 58//206 54//200 61//207
f 54//200 58//206 59//208
f 57//209 61//207 62//210
f 71//211 59//208 72//212
f 61//207 57//209 58//206
f 64//213 65//214 66//215
f 66//215 65//214 62//210
f 76//216 79//217 78//218
f 80//219 81//220 84//221
f 83//222 28//144 81//220
f 28//144 83//222 85//142
f 84//221 77//223 80//219
f 87//224 78//218 88//225
f 87//224 86//226 89//227
f 93//165 100//228 92//163
f 96//229 95//230 94//231
f 93//165 30//232 96//229
f 99//233 91//234 90//235
f 91//234 99//233 98//236
f 102//237 110//238 109//239
f 109//239 115//240 118//241
f 107//242 101//243 116//244
f 108//245 117//246 114//247
f 118//241 108//245 109//239
f 105//248 107//242 112//249
f 55//203 71//211 3//183
f 113//250 116//244 13//251
f 112//249 116//244 113//250
f 104//252 105//253 106//254
f 4//255 117//246 118//241
f 97//256 94//231 113//250
f 80//219 106//257 82//258
f 103//259 104//260 77//261
f 98//236 69//262 115//263
f 111//264 110//265 104//260
f 95//230 82//258 112//249
f 89//227 91//234 111//264
f 81//220 82//258 83//222
f 91//234 86//226 90//235
f 80//219 77//223 106//257
f 103//259 111//264 104//260
f 103//259 87//224 111//264
f 87//224 89//227 111//264
f 79//217 77//223 75//266
f 68//267 69//262 98//236
f 78//218 87//224 76//216
f 94//231 100//228 96//229
f 33//195 75//266 27//268
f 36//197 86//226 88//225
f 84//221 75//266 77//223
f 78//218 34//194 26//269
f 34//194 79//217 33//195
f 90//235 38//191 99//233
f 38//191 32//192 99//233
f 32//192 50//204 99//233
f 65//214 2//161 57//209
f 35//196 86//226 36//197
f 23//270 81//220 28//144
f 29//271 75//266 84//221
f 29//271 27//268 75//266
f 68//267 98//236 99//233
f 35//196 90//235 86//226
f 96//229 25//272 85//273
f 26//269 88//225 78//218
f 53//198 50//204 32//192
f 88//225 37//274 36//197
f 51//205 70//188 69//262
f 57//209 60//160 58//206
f 55//203 3//183 47//182
f 57//209 62//210 65//214
f 54//200 49//199 61//207
f 59//208 56//201 54//200
f 82//258 106//257 112//249
f 62//210 63//275 66//215
f 83//222 95//230 96//229
f 55//203 56//201 71//211
f 67//276 66//215 16//277
f 66//215 63//275 16//277
f 48//185 51//205 52//202
f 51//205 68//267 50//204
f 69//262 68//267 51//205
f 66//215 1//278 64//213
f 48//185 5//184 51//205
f 47//182 52//202 55//203
f 105//279 102//280 101//281
f 117//246 108//245 118//241
f 108//245 102//237 109//239
f 110//238 115//240 109//239
f 112//249 113//250 94//231 95//230
f 56//201 59//208 71//211
f 81//220 80//219 82//258
f 91//234 89//227 86//226
f 100//228 94//231 97//256
f 79//217 76//216 77//223
f 107//242 116//244 112//249
f 88//225 86//226 87//224
f 78//218 79//217 34//194
f 33//195 79//217 75//266
f 96//229 100//228 93//165
f 65//214 64//213 73//282
f 23//270 29//271 84//221
f 23//270 84//221 81//220
f 30//232 25//272 96//229
f 35//196 38//191 90//235
f 60//160 72//190 58//206
f 108//245 114//247 101//283
f 83//222 82//258 95//230
f 117//246 119//284 114//247
f 47//182 48//185 52//202
f 69//262 70//188 4//187
f 66//215 67//276 1//278
f 57//209 2//161 60//160
