# Blender v2.93.3 OBJ File: ''
# www.blender.org
mtllib link5.mtl
o Link5
v 0.033879 0.024999 0.227192
v 0.027959 -0.019120 0.231149
v 0.001990 -0.029407 0.239066
v -0.000822 0.024997 0.239891
v -0.014093 -0.018859 0.237975
v -0.015230 0.024994 0.237741
v -0.031547 -0.017877 0.228881
v -0.025368 0.024998 0.232969
v -0.037526 0.024994 0.223392
v 0.014544 -0.018802 0.237829
v 0.020144 -0.029633 0.233994
v 0.044585 0.024994 0.212851
v 0.047751 -0.019706 0.204380
v 0.050011 0.024989 0.193678
v -0.017310 -0.029656 0.235229
v -0.041318 -0.018669 0.217806
v -0.046719 0.024995 0.207401
v -0.047922 -0.018868 0.204203
v -0.049890 0.024999 0.185331
v -0.049942 -0.016386 0.186587
v 0.045284 -0.029650 0.207165
v 0.048976 -0.029446 0.187930
v 0.031909 0.038650 0.043725
v 0.027881 0.041258 0.000000
v 0.022024 0.044266 0.055142
v 0.037645 0.032976 0.042006
v 0.040923 0.028463 0.000000
v 0.014283 0.047745 0.000001
v 0.005621 0.049816 0.046143
v -0.044154 -0.029666 0.209905
v -0.048179 -0.029491 0.195061
v -0.003322 0.050059 0.041201
v -0.008889 0.049247 0.000001
v -0.022213 0.044361 0.054600
v -0.031563 0.038845 0.000001
v -0.031394 0.039074 0.048530
v -0.009859 0.047043 0.060418
v -0.001154 0.049302 0.051591
v 0.049344 0.009125 0.000001
v 0.050122 0.000905 0.040501
v 0.048717 -0.010063 0.000000
v 0.049880 -0.005647 0.048261
v -0.049932 -0.003779 0.042784
v -0.049841 0.005949 0.000001
v -0.048087 -0.012656 0.000000
v 0.014907 -0.046500 0.004020
v 0.027037 -0.042382 0.000001
v 0.003626 -0.049705 0.000000
v 0.042166 -0.026562 0.000001
v -0.044825 0.022088 0.000000
v -0.016547 -0.047176 0.000000
v -0.031252 -0.039054 0.000001
v -0.040787 -0.028486 0.000001
v 0.016870 0.024997 0.237145
v -0.030318 -0.029489 0.227773
v -0.049896 0.004831 0.049393
v 0.038736 -0.030093 0.220441
v 0.048834 -0.029504 0.190512
v -0.035712 -0.029686 0.223276
v 0.015968 -0.054504 0.184465
v 0.012837 -0.054314 0.169939
v 0.023110 -0.054158 0.191473
v 0.010880 -0.054601 0.195657
v 0.012396 -0.054192 0.210596
v 0.032723 -0.049080 0.207995
v -0.015159 -0.050207 0.222289
v -0.032821 -0.050392 0.201076
v -0.017438 -0.054128 0.207339
v -0.029951 -0.044930 0.219366
v -0.021207 -0.054270 0.178951
v 0.031160 -0.051408 0.180785
v -0.036990 -0.048225 0.180569
v -0.006188 -0.054563 0.167698
v 0.018914 -0.039632 0.231332
v 0.001997 -0.036790 0.236037
v 0.002488 -0.045794 0.230366
v 0.009259 -0.050418 0.223479
v 0.022407 -0.047362 0.222111
v -0.003895 -0.042137 0.233554
v -0.016927 -0.040781 0.231321
v 0.043690 -0.040798 0.199960
v 0.039041 -0.047807 0.187258
v 0.045208 -0.038466 0.183510
v -0.045551 -0.029502 0.207068
v -0.042408 -0.042412 0.201559
v -0.044651 -0.040382 0.185397
v -0.002639 -0.054908 0.193008
v -0.013963 -0.054853 0.193138
vn -0.0802 -0.0193 0.9966
vn -0.1476 0.0015 0.9890
vn -0.6188 0.0143 0.7855
vn 0.4424 -0.0873 0.8926
vn 0.2614 -0.1992 0.9445
vn 0.9621 0.0165 0.2722
vn -0.1891 -0.1887 0.9637
vn -0.8995 -0.0072 0.4368
vn -0.9934 0.0047 0.1145
vn -0.7490 -0.0197 0.6622
vn -0.8669 0.0115 0.4984
vn -0.9897 0.0168 0.1422
vn 0.4990 0.8666 0.0057
vn 0.6997 0.7141 -0.0219
vn 0.7001 0.7137 -0.0220
vn 0.4306 0.9026 -0.0035
vn 0.3125 0.9498 0.0161
vn -0.8961 -0.0824 0.4362
vn -0.9923 -0.0660 0.1045
vn -0.2767 0.9608 0.0185
vn -0.4169 0.9087 -0.0204
vn -0.4978 0.8673 -0.0024
vn -0.1506 0.9832 0.1030
vn -0.2427 0.9676 0.0693
vn 0.9991 -0.0327 -0.0258
vn 0.9981 -0.0590 -0.0187
vn -0.9953 -0.0938 -0.0235
vn -0.2977 0.9516 0.0766
vn -0.4259 -0.0062 0.9048
vn -0.4628 -0.0178 0.8863
vn 0.9984 0.0553 -0.0080
vn 0.9998 -0.0194 0.0038
vn 0.9993 -0.0366 0.0002
vn 0.9932 -0.1160 -0.0133
vn 0.0000 -0.0000 -1.0000
vn 0.9287 -0.3687 -0.0393
vn 0.9163 0.3990 -0.0358
vn 0.7081 0.7058 -0.0206
vn 0.7001 0.7137 -0.0195
vn 0.5087 0.8608 0.0170
vn 0.2818 0.9564 0.0762
vn 0.2765 0.9579 0.0780
vn -0.0001 0.0000 -1.0000
vn -0.0002 -0.0001 -1.0000
vn -0.0001 -0.0001 -1.0000
vn -0.9895 -0.1437 -0.0129
vn 0.1496 0.9825 0.1113
vn -0.0147 0.9970 0.0757
vn 0.0726 0.9896 0.1243
vn -1.0000 0.0013 0.0000
vn -1.0000 0.0047 -0.0007
vn -1.0000 0.0050 -0.0010
vn -0.9899 -0.1413 -0.0124
vn -1.0000 0.0068 -0.0010
vn -0.9545 0.2967 -0.0307
vn -0.7838 0.6203 -0.0312
vn -0.6131 0.7900 -0.0016
vn -0.4941 -0.1343 0.8590
vn -0.4641 -0.0859 0.8816
vn -0.1453 0.9834 0.1084
vn -0.0947 0.9883 0.1198
vn -0.0584 0.9904 0.1249
vn -0.0193 0.9916 0.1280
vn 0.1534 0.0073 0.9881
vn -0.3836 0.9218 0.0553
vn -0.5087 0.8607 0.0198
vn -0.2484 0.9651 0.0825
vn -0.1777 0.9788 0.1022
vn 0.1061 -0.0096 0.9943
vn 0.0411 0.9988 -0.0252
vn 0.0646 0.9974 -0.0326
vn 0.0773 -0.9966 -0.0297
vn 0.0440 -0.9988 0.0229
vn 0.0393 -0.9992 0.0092
vn 0.2586 -0.9553 0.1432
vn -0.3347 -0.8977 0.2864
vn -0.3738 -0.8710 0.3187
vn -0.2505 -0.9674 0.0381
vn -0.3598 -0.9327 -0.0254
vn 0.1462 -0.5215 0.8406
vn 0.2206 -0.6954 0.6839
vn -0.0333 -0.8446 0.5344
vn 0.5891 -0.4954 0.6384
vn 0.2330 -0.7000 0.6750
vn -0.1081 -0.7538 0.6482
vn -0.3678 -0.6784 0.6360
vn -0.1909 -0.6975 0.6906
vn 0.6663 -0.7287 0.1583
vn 0.6393 -0.5528 0.5345
vn 0.7242 -0.5235 0.4488
vn -0.6375 -0.7689 0.0484
vn -0.5980 -0.7374 0.3140
vn 0.8343 -0.5513 -0.0012
vn -0.7120 -0.7021 0.0107
vn -0.0302 -0.9657 0.2579
vn -0.0218 -0.9609 0.2762
vn 0.2689 -0.9127 0.3076
vn 0.2461 -0.9123 0.3272
vn 0.0145 -0.9998 -0.0157
vn 0.0150 -0.9998 -0.0163
vn 0.1206 -0.5244 0.8429
vn -0.0075 -0.9988 0.0492
vn -0.0043 -0.9990 0.0444
vn 0.0177 -0.9995 0.0256
vn -0.0050 -0.9999 -0.0129
vn -0.0363 -0.9991 -0.0225
vn -0.4231 -0.9045 -0.0532
vn -0.1211 -0.9924 0.0211
vn 0.3811 -0.9232 0.0495
vn 0.3834 -0.9216 0.0602
vn 0.0224 -0.9997 0.0015
vn -0.0430 -0.9986 -0.0314
vn 0.0164 -0.9995 -0.0280
vn 0.0809 -0.9962 -0.0314
vn 0.2637 -0.9633 -0.0492
vn 0.4797 0.0013 0.8774
vn -0.1243 -0.9913 -0.0425
vn 0.2904 -0.9554 -0.0532
vn 0.4518 -0.8904 -0.0548
vn 0.8412 -0.0148 0.5406
vn 0.3048 -0.9509 -0.0544
vn 0.8354 -0.3775 0.3994
vn 0.8937 -0.0992 0.4375
vn 0.0220 0.9916 0.1277
vn 0.6902 -0.0278 0.7231
vn 0.5724 -0.2111 0.7924
vn 0.5616 -0.2767 0.7798
vn 0.9173 -0.3971 0.0283
vn 0.9221 -0.3847 0.0421
vn 0.9439 -0.2635 0.1989
vn -0.7701 -0.4177 0.4822
vn -0.0455 -0.3792 0.9242
vn 0.7574 -0.6501 -0.0611
vn -0.9308 -0.3638 -0.0371
vn -0.7371 -0.6732 -0.0581
vn -0.5780 -0.4008 0.7109
vn -0.1852 -0.3237 0.9279
vn -0.9282 -0.3465 0.1354
vn -0.8410 -0.3723 0.3927
vn 0.9621 -0.1817 0.2035
vn 0.9949 -0.0271 0.0969
vn 0.2288 -0.3174 0.9203
vn 0.9982 -0.0247 0.0544
vn -0.5177 -0.3718 0.7705
vn -0.8343 -0.1631 0.5265
vn -0.8959 -0.0822 0.4365
vn -0.9646 -0.1583 0.2109
vn -0.7115 -0.0804 0.6980
usemtl robot
s off
f 3//1 4//1 5//1
f 5//2 4//2 6//2
f 7//3 8//3 9//3
f 2//4 10//4 11//4
f 10//5 3//5 11//5
f 12//6 13//6 14//6
f 3//7 5//7 15//7
f 16//8 17//8 18//8
f 19//9 20//9 18//9
f 7//10 9//10 16//10
f 16//11 9//11 17//11
f 18//12 17//12 19//12
f 23//13 24//13 25//13
f 24//14 23//14 26//14
f 24//15 26//15 27//15
f 24//16 28//16 25//16
f 25//17 28//17 29//17
f 18//18 30//18 16//18
f 18//19 20//19 31//19
f 32//20 33//20 34//20
f 34//21 33//21 35//21
f 34//22 35//22 36//22
f 37//23 38//23 32//23
f 37//24 32//24 34//24
f 39//25 40//25 41//25
f 41//26 40//26 42//26
f 43//27 44//27 45//27
f 46//28 47//28 48//28
f 5//29 6//29 8//29
f 5//30 8//30 7//30
f 39//31 14//31 40//31
f 14//32 22//32 40//32
f 22//33 42//33 40//33
f 22//34 41//34 42//34
f 49//35 45//35 41//35
f 45//35 39//35 41//35
f 22//36 49//36 41//36
f 45//35 27//35 39//35
f 27//37 14//37 39//37
f 27//38 26//38 14//38
f 26//39 23//39 14//39
f 23//40 25//40 14//40
f 25//41 29//41 14//41
f 29//42 12//42 14//42
f 47//35 45//35 49//35
f 44//43 50//43 45//43
f 50//35 35//35 45//35
f 35//35 33//35 45//35
f 33//35 28//35 45//35
f 28//35 24//35 45//35
f 24//35 27//35 45//35
f 47//35 48//35 45//35
f 48//35 51//35 45//35
f 51//44 52//44 45//44
f 52//45 53//45 45//45
f 31//46 43//46 45//46
f 29//47 1//47 12//47
f 32//48 38//48 29//48
f 54//49 1//49 29//49
f 20//50 19//50 43//50
f 19//51 56//51 43//51
f 56//52 44//52 43//52
f 31//53 20//53 43//53
f 56//54 19//54 44//54
f 19//55 50//55 44//55
f 19//56 35//56 50//56
f 19//57 36//57 35//57
f 7//58 55//58 15//58
f 7//59 15//59 5//59
f 37//60 9//60 38//60
f 9//61 8//61 38//61
f 8//62 6//62 38//62
f 6//63 4//63 38//63
f 4//64 10//64 54//64
f 17//65 34//65 19//65
f 34//66 36//66 19//66
f 17//67 37//67 34//67
f 17//68 9//68 37//68
f 3//69 10//69 4//69
f 33//70 32//70 29//70
f 33//71 29//71 28//71
f 60//72 61//72 62//72
f 63//73 62//73 64//73
f 60//74 62//74 63//74
f 65//75 64//75 62//75
f 66//76 67//76 68//76
f 69//77 67//77 66//77
f 68//78 67//78 70//78
f 72//79 70//79 67//79
f 74//80 75//80 76//80
f 74//81 76//81 77//81
f 66//82 77//82 76//82
f 78//83 57//83 74//83
f 78//84 74//84 77//84
f 66//85 76//85 79//85
f 66//86 80//86 69//86
f 80//87 66//87 79//87
f 81//88 65//88 82//88
f 65//89 57//89 78//89
f 81//90 57//90 65//90
f 85//91 72//91 67//91
f 85//92 67//92 69//92
f 81//93 82//93 83//93
f 86//94 72//94 85//94
f 66//95 68//95 64//95
f 66//96 64//96 77//96
f 64//97 65//97 78//97
f 64//98 78//98 77//98
f 60//99 87//99 73//99
f 60//100 73//100 61//100
f 79//101 76//101 75//101
f 68//102 88//102 64//102
f 88//103 87//103 64//103
f 87//104 63//104 64//104
f 73//105 87//105 88//105
f 73//106 88//106 70//106
f 52//107 51//107 70//107 72//107
f 70//108 88//108 68//108
f 62//109 71//109 82//109
f 62//110 82//110 65//110
f 60//111 63//111 87//111
f 70//112 48//112 73//112
f 48//113 61//113 73//113
f 61//114 48//114 62//114
f 48//115 71//115 62//115
f 54//116 10//116 2//116 1//116
f 51//117 48//117 70//117
f 46//118 71//118 48//118
f 71//119 47//119 82//119
f 12//120 1//120 57//120 13//120
f 46//121 47//121 71//121
f 81//122 21//122 57//122
f 21//123 13//123 57//123
f 38//124 4//124 54//124 29//124
f 1//125 2//125 57//125
f 2//126 11//126 57//126
f 11//127 74//127 57//127
f 83//128 22//128 81//128
f 22//129 58//129 81//129
f 58//130 21//130 81//130
f 59//131 30//131 85//131 69//131
f 75//132 3//132 79//132
f 49//133 83//133 82//133 47//133
f 86//134 31//134 45//134 53//134
f 53//135 52//135 72//135 86//135
f 55//136 59//136 69//136
f 15//137 80//137 79//137 3//137
f 31//138 86//138 85//138 84//138
f 22//36 83//36 49//36
f 30//139 84//139 85//139
f 58//140 13//140 21//140
f 58//141 14//141 13//141
f 3//142 75//142 74//142 11//142
f 14//143 58//143 22//143
f 55//144 69//144 80//144 15//144
f 59//145 16//145 30//145
f 18//146 84//146 30//146
f 84//147 18//147 31//147
f 7//148 16//148 59//148 55//148
