# Blender v2.93.3 OBJ File: ''
# www.blender.org
mtllib link3.mtl
o Link3
v -0.064695 0.017716 0.212902
v -0.068264 -0.024992 0.202916
v -0.060945 -0.024993 0.218441
v -0.052485 0.018074 0.228221
v -0.050844 -0.024994 0.229478
v -0.039670 0.029700 0.235369
v -0.039189 -0.024998 0.236119
v -0.025579 0.017546 0.239847
v -0.024724 -0.024998 0.239846
v -0.005697 0.017693 0.238142
v -0.004048 -0.024996 0.237408
v -0.050284 0.029500 0.228736
v -0.069007 0.029406 0.197666
v -0.069980 0.017215 0.186592
v -0.069442 -0.024995 0.182305
v -0.000838 0.029580 0.234917
v -0.017571 0.029499 0.239195
v 0.011248 0.017528 0.229243
v 0.013433 -0.024996 0.227259
v 0.023773 0.018669 0.214469
v 0.024234 -0.024992 0.213671
v -0.065315 0.029574 0.209144
v -0.018798 -0.045577 0.054692
v -0.014934 -0.047613 0.000000
v -0.005666 -0.049843 0.046258
v 0.024461 0.029501 0.211178
v 0.011204 0.029501 0.228323
v 0.018421 -0.046291 -0.000000
v 0.018528 -0.045786 0.054533
v 0.003634 -0.050044 0.041593
v 0.002615 -0.049582 0.000001
v 0.027355 -0.041667 0.051245
v 0.034450 -0.035954 -0.000000
v 0.031605 -0.038618 0.043593
v 0.008870 -0.047518 0.059529
v 0.001311 -0.049313 0.051593
v 0.034790 -0.035608 0.051740
v 0.045154 -0.021211 -0.000000
v 0.043522 -0.023848 0.055881
v 0.038970 -0.031195 0.045379
v 0.049974 -0.004354 0.042547
v 0.049897 -0.003342 0.051012
v 0.049964 0.004253 0.043119
v 0.049892 -0.001350 -0.000000
v 0.047625 0.015207 -0.000000
v 0.043983 0.023390 0.055044
v 0.049941 0.005375 0.049033
v 0.037802 0.032694 0.000001
v 0.037758 0.032713 0.042379
v -0.003240 0.049611 0.000000
v 0.037392 0.033089 0.051087
v 0.032459 0.038165 0.042958
v 0.027736 0.041459 0.000000
v 0.010394 0.048721 0.000000
v 0.047299 -0.013018 0.004009
v -0.047713 0.015579 0.000015
v -0.049329 -0.009264 0.000001
v 0.029548 0.029479 0.192275
v 0.029089 -0.024983 0.198068
v -0.028184 -0.040654 0.000000
v -0.040087 -0.029880 0.000001
v -0.042221 0.026331 0.000000
v -0.033988 0.036401 0.000000
v -0.023622 0.044114 0.000000
v -0.009006 0.055212 0.196712
v -0.012357 0.054959 0.212655
v -0.000184 0.054763 0.202740
v -0.027863 0.055022 0.212323
v -0.030446 0.055121 0.196051
v -0.041162 0.054757 0.199837
v -0.004338 0.055005 0.172878
v -0.004808 0.055230 0.185852
v 0.002711 0.055043 0.184530
v -0.036007 0.055072 0.184433
v -0.040334 0.054742 0.178296
v -0.053737 0.051674 0.200835
v -0.040684 0.048192 0.225159
v -0.054786 0.047561 0.212731
v -0.021426 0.049219 0.229232
v -0.002876 0.050060 0.224353
v -0.049401 0.052055 0.172969
v -0.060464 0.047851 0.182478
v 0.013592 0.052108 0.196912
v -0.009007 0.041598 0.234729
v 0.002864 0.029551 0.233726
v 0.027033 0.038903 0.193656
v 0.029131 0.029511 0.195868
v -0.047103 0.042190 0.226614
v -0.032061 0.040988 0.234349
v -0.062297 0.039002 0.211189
v -0.055961 0.029520 0.223963
v -0.016211 0.045124 0.233279
v -0.020898 0.039756 0.236374
v 0.003902 0.042608 0.228402
v -0.023493 0.046332 0.232239
v -0.026314 0.029510 0.238859
v -0.062081 0.045347 0.199825
v -0.068250 0.029515 0.200066
v -0.068046 0.029530 0.176680
v -0.066287 0.040644 0.187318
v 0.014894 0.047886 0.211079
v 0.009099 0.043759 0.224076
v 0.016082 0.029515 0.223526
v 0.019576 0.042456 0.212236
v 0.024812 0.029585 0.210439
v 0.023376 0.045207 0.194330
v 0.020373 0.048306 0.183883
v -0.031044 0.055113 0.183853
v -0.016529 0.054947 0.167403
v -0.010197 0.055218 0.185414
v -0.029968 0.054948 0.169106
vn -0.9043 -0.0241 0.4263
vn -0.7377 -0.0084 0.6751
vn -0.2946 0.0105 0.9556
vn -0.2495 -0.0050 0.9684
vn 0.1171 -0.0126 0.9930
vn -0.5297 0.0639 0.8458
vn -0.9592 0.0141 0.2824
vn -0.9982 -0.0185 0.0571
vn -0.9957 -0.0047 0.0926
vn 0.2438 0.1599 0.9565
vn 0.5021 -0.0146 0.8647
vn 0.7828 -0.0031 0.6223
vn -0.3006 -0.9536 0.0143
vn 0.2681 -0.9634 0.0084
vn 0.2038 -0.9789 -0.0159
vn 0.4252 -0.9051 0.0075
vn 0.5418 -0.8403 -0.0187
vn 0.5671 -0.8236 -0.0133
vn 0.1274 -0.9866 0.1017
vn 0.6296 -0.7759 0.0404
vn 0.2134 -0.9741 0.0748
vn 0.8501 -0.5266 -0.0000
vn 0.8091 -0.5874 -0.0190
vn 0.9520 -0.3059 0.0134
vn 0.9569 -0.2873 0.0430
vn 1.0000 0.0012 -0.0018
vn 0.9510 0.3088 0.0170
vn 0.8717 0.4897 -0.0151
vn 0.8313 0.5558 0.0006
vn 0.8251 0.5649 0.0103
vn 0.6566 0.7541 -0.0144
vn -0.9717 0.2318 0.0463
vn 0.9687 -0.2481 -0.0114
vn 0.9747 -0.2226 -0.0176
vn 0.0001 -0.0000 -1.0000
vn -0.0000 0.0000 -1.0000
vn -0.0001 0.0001 -1.0000
vn 0.0000 -0.0001 -1.0000
vn -0.0001 0.0006 -1.0000
vn -0.0004 -0.0012 -1.0000
vn 0.0001 0.0001 -1.0000
vn -0.0001 -0.0000 -1.0000
vn 0.9906 0.1356 -0.0196
vn 0.9954 0.0946 -0.0140
vn 0.9568 -0.2749 0.0949
vn 0.7954 -0.6013 0.0759
vn 0.7259 -0.6878 -0.0002
vn 0.6862 -0.7274 0.0004
vn 0.7761 -0.6261 0.0757
vn -0.0320 -0.9917 0.1241
vn -0.0204 -0.9919 0.1253
vn -0.3555 -0.9346 0.0097
vn -0.4648 -0.8849 -0.0292
vn -0.6685 -0.7385 -0.0878
vn -0.9042 -0.4053 -0.1347
vn 1.0000 -0.0029 0.0094
vn 1.0000 0.0008 0.0038
vn 0.7168 0.6972 0.0004
vn 0.7213 0.6927 0.0004
vn 0.9548 0.0047 0.2971
vn 0.3515 -0.9298 0.1089
vn 0.4499 -0.8879 0.0956
vn 0.6264 -0.7753 0.0807
vn 0.0170 -0.9969 0.0768
vn 0.2340 -0.9651 0.1177
vn -0.4951 0.0065 0.8688
vn -0.4923 0.0076 0.8704
vn -0.0674 -0.9908 0.1178
vn -0.1154 -0.9877 0.1055
vn -0.1786 -0.9803 0.0841
vn -0.2871 -0.9572 0.0371
vn -0.3344 -0.9423 0.0193
vn 0.1603 -0.9789 0.1271
vn 0.0979 -0.9867 0.1298
vn 0.0764 -0.9884 0.1315
vn 0.0154 -0.9914 0.1302
vn 0.0886 0.0003 0.9961
vn 0.0788 0.0016 0.9969
vn -0.1114 -0.9934 -0.0256
vn -0.0268 -0.9996 -0.0105
vn 0.0349 0.9991 0.0232
vn -0.0301 0.9995 0.0109
vn 0.0220 0.9996 -0.0166
vn -0.0303 0.9995 0.0103
vn -0.0711 0.9975 -0.0034
vn -0.2169 0.9531 0.2108
vn -0.2370 0.9357 0.2611
vn -0.2953 0.9107 0.2888
vn -0.1263 0.9225 0.3647
vn -0.0031 0.9455 0.3257
vn 0.0500 0.9350 0.3511
vn -0.2388 0.9710 -0.0099
vn -0.2685 0.9628 -0.0286
vn -0.3908 0.9192 -0.0482
vn 0.2086 0.9768 0.0482
vn -0.3456 0.5533 0.7579
vn -0.6703 0.4874 0.5596
vn -0.7006 0.3611 0.6155
vn -0.5062 0.6722 0.5402
vn 0.1278 0.7747 0.6193
vn 0.0501 0.4656 0.8836
vn 0.3968 0.3193 0.8606
vn -0.1007 0.5008 0.8597
vn -0.1378 0.3017 0.9434
vn 0.2026 0.6968 0.6880
vn -0.1717 0.7669 0.6184
vn -0.2278 0.6511 0.7241
vn -0.7405 0.5927 0.3168
vn -0.6067 0.7663 0.2115
vn -0.6077 0.7921 0.0577
vn -0.7711 0.6364 0.0200
vn 0.2977 0.9220 0.2475
vn 0.3731 0.6814 0.6296
vn 0.4259 0.7901 0.4408
vn 0.7243 0.3317 0.6044
vn 0.2935 0.6485 0.7023
vn 0.6142 0.6308 0.4741
vn 0.8979 0.3235 0.2985
vn 0.8486 0.4655 0.2515
vn 0.5873 0.8063 0.0704
vn 0.5982 0.7814 0.1779
vn 0.9234 0.2704 0.2724
vn 0.7058 0.6623 0.2515
vn -0.0083 1.0000 -0.0003
vn -0.0050 1.0000 -0.0004
vn -0.0043 1.0000 0.0010
vn -0.0042 0.9999 -0.0115
vn 0.2797 0.9303 0.2373
vn 0.0364 0.9991 0.0211
vn 0.0271 0.9996 0.0122
vn -0.0415 0.9988 -0.0244
vn -0.0097 0.9999 -0.0119
vn 0.0030 0.9998 -0.0173
vn -0.0024 1.0000 0.0008
vn -0.9866 0.1569 -0.0443
vn 0.0037 0.9999 0.0167
vn -0.0044 1.0000 0.0068
vn 0.2046 0.9509 0.2324
vn -0.0352 0.5220 0.8522
vn 0.0187 0.7147 0.6991
vn 0.1831 0.2238 0.9573
vn 0.9803 0.1627 0.1122
vn 0.8379 0.5445 0.0387
vn -0.9940 -0.0015 -0.1098
vn -0.4546 0.3138 0.8336
vn -0.9520 0.2765 -0.1314
vn -0.8809 0.4498 -0.1475
vn -0.9909 0.0630 -0.1188
vn -0.5915 0.7948 -0.1357
vn -0.4311 0.8961 -0.1054
vn 0.5412 0.2968 0.7868
vn -0.0555 0.9976 -0.0403
vn -0.0040 0.9995 -0.0322
vn 0.0092 0.9995 -0.0311
vn 0.0457 0.9985 -0.0309
vn 0.0651 0.9974 -0.0315
vn 0.2826 0.9590 -0.0211
vn 0.3862 0.9222 -0.0221
vn 0.4682 0.8835 -0.0141
vn 0.6048 0.7964 -0.0054
vn -0.2532 0.9640 -0.0812
vn 0.9643 0.2412 0.1096
vn 0.9587 0.0137 0.2841
vn 0.9592 0.0107 0.2825
vn 0.9901 0.0079 0.1401
vn 0.9582 0.2720 0.0887
vn -0.0011 0.9999 -0.0152
vn -0.0017 0.9999 -0.0143
vn 0.7027 0.7114 0.0091
vn 0.7092 0.7049 0.0098
vn 0.8527 0.2858 0.4374
vn 0.7998 0.2572 0.5424
vn 0.8975 0.0750 0.4345
vn 0.7662 0.0068 0.6426
vn 0.8218 0.1172 0.5576
vn -0.9534 0.0382 0.2992
vn -0.9261 0.2519 0.2808
vn -0.7677 0.0053 0.6408
vn -0.7900 0.0101 0.6130
vn -0.7871 0.5985 -0.1493
vn 0.6682 0.3013 0.6803
vn 0.6999 0.0573 0.7119
vn 0.7551 0.0082 0.6556
vn -0.8389 0.1241 0.5299
vn -0.9505 0.0476 0.3070
vn -0.9260 0.2318 0.2979
vn -0.8354 0.1529 0.5279
vn 0.3004 0.2187 0.9284
vn 0.4560 0.0023 0.8900
vn 0.4713 -0.0002 0.8820
vn -0.0368 0.2539 0.9665
vn -0.0382 0.0799 0.9961
vn -0.2515 0.0643 0.9657
vn 0.3045 0.1315 0.9434
vn -0.2417 0.2476 0.9382
vn -0.9111 0.3718 0.1779
vn -0.6408 0.0891 0.7625
vn -0.6176 0.2779 0.7357
vn 0.5428 0.0664 0.8373
usemtl robot
s off
f 1//1 2//1 3//1
f 4//2 3//2 5//2
f 6//3 7//3 8//3
f 8//4 7//4 9//4
f 10//5 9//5 11//5
f 12//6 4//6 6//6
f 2//7 1//7 13//7
f 14//8 15//8 2//8
f 14//9 2//9 13//9
f 10//10 16//10 17//10
f 18//11 11//11 19//11
f 20//12 19//12 21//12
f 23//13 24//13 25//13
f 28//14 29//14 30//14
f 28//15 30//15 31//15
f 29//16 28//16 32//16
f 32//17 28//17 33//17
f 33//18 34//18 32//18
f 35//19 36//19 30//19
f 32//20 34//20 37//20
f 30//21 29//21 35//21
f 38//22 39//22 40//22
f 38//23 40//23 33//23
f 39//24 38//24 41//24
f 39//25 41//25 42//25
f 43//26 41//26 44//26
f 45//27 46//27 47//27
f 46//28 45//28 48//28
f 46//29 48//29 49//29
f 46//30 49//30 51//30
f 53//31 52//31 48//31
f 55//32 44//32 38//32
f 38//33 55//33 41//33
f 55//34 44//34 41//34
f 33//35 44//35 38//35
f 33//36 28//36 44//36
f 28//37 31//37 44//37
f 31//38 24//38 44//38
f 24//36 60//36 44//36
f 60//36 61//36 44//36
f 61//36 57//36 44//36
f 57//39 56//39 44//39
f 56//40 62//40 44//40
f 62//36 63//36 44//36
f 63//36 64//36 44//36
f 64//36 50//36 44//36
f 50//36 54//36 44//36
f 54//36 53//36 44//36
f 53//41 48//41 44//41
f 48//42 45//42 44//42
f 45//43 47//43 44//43
f 47//44 43//44 44//44
f 59//45 39//45 42//45
f 59//46 40//46 39//46
f 40//47 37//47 33//47
f 37//48 34//48 33//48
f 59//49 37//49 40//49
f 9//50 7//50 25//50
f 9//51 25//51 36//51
f 23//52 15//52 24//52
f 15//53 60//53 24//53
f 15//54 61//54 60//54
f 15//55 57//55 61//55
f 47//56 42//56 41//56
f 47//57 41//57 43//57
f 52//58 51//58 48//58
f 51//59 49//59 48//59
f 20//60 21//60 59//60
f 21//61 29//61 59//61
f 29//62 32//62 59//62
f 32//63 37//63 59//63
f 36//64 25//64 30//64
f 21//65 35//65 29//65
f 4//66 5//66 7//66
f 4//67 7//67 6//67
f 7//68 5//68 25//68
f 5//69 3//69 25//69
f 3//70 2//70 25//70
f 2//71 23//71 25//71
f 2//72 15//72 23//72
f 19//73 35//73 21//73
f 19//74 36//74 35//74
f 19//75 11//75 36//75
f 11//76 9//76 36//76
f 10//77 17//77 9//77
f 17//78 8//78 9//78
f 25//79 24//79 31//79
f 25//80 31//80 30//80
f 65//81 66//81 67//81
f 68//82 69//82 70//82
f 71//83 72//83 73//83
f 74//84 70//84 69//84
f 74//85 75//85 70//85
f 68//86 70//86 76//86
f 77//87 68//87 76//87
f 77//88 76//88 78//88
f 79//89 68//89 77//89
f 68//90 79//90 66//90
f 79//91 80//91 66//91
f 76//92 70//92 75//92
f 75//93 81//93 76//93
f 82//94 76//94 81//94
f 83//95 73//95 67//95
f 77//96 88//96 89//96
f 88//97 78//97 90//97
f 88//98 90//98 91//98
f 88//99 77//99 78//99
f 92//100 80//100 79//100
f 84//101 92//101 93//101
f 94//102 84//102 85//102
f 95//103 89//103 93//103
f 89//104 96//104 93//104
f 80//105 92//105 84//105
f 79//106 77//106 95//106
f 89//107 95//107 77//107
f 90//108 78//108 97//108
f 97//109 78//109 76//109
f 97//110 76//110 82//110
f 82//111 100//111 97//111
f 80//112 101//112 83//112
f 80//113 94//113 102//113
f 102//114 101//114 80//114
f 102//115 103//115 104//115
f 94//116 80//116 84//116
f 104//117 101//117 102//117
f 104//118 105//118 86//118
f 106//119 104//119 86//119
f 107//120 83//120 106//120
f 106//121 83//121 101//121
f 86//122 105//122 87//122
f 106//123 101//123 104//123
f 108//124 74//124 69//124
f 110//125 108//125 69//125
f 110//126 69//126 65//126
f 110//127 111//127 108//127
f 67//128 80//128 83//128
f 65//129 67//129 73//129
f 65//130 73//130 72//130
f 74//131 111//131 75//131
f 74//132 108//132 111//132
f 72//133 71//133 109//133
f 110//134 65//134 72//134
f 13//135 100//135 99//135 14//135
f 68//136 66//136 65//136
f 68//137 65//137 69//137
f 66//138 80//138 67//138
f 92//139 95//139 93//139
f 95//140 92//140 79//140
f 17//141 16//141 84//141 93//141
f 58//142 87//142 47//142
f 106//143 86//143 46//143 51//143
f 15//144 14//144 57//144
f 88//145 12//145 6//145 89//145
f 99//146 100//146 56//146
f 100//147 62//147 56//147
f 99//148 56//148 57//148 14//148
f 82//149 64//149 63//149
f 82//150 81//150 64//150
f 85//151 27//151 102//151 94//151
f 75//152 111//152 50//152
f 111//153 109//153 50//153
f 109//154 71//154 50//154
f 71//155 73//155 50//155
f 73//156 54//156 50//156
f 73//157 83//157 54//157
f 83//158 53//158 54//158
f 83//159 107//159 53//159
f 107//160 52//160 53//160
f 81//161 75//161 50//161 64//161
f 87//162 58//162 86//162
f 105//163 20//163 87//163
f 20//164 59//164 87//164
f 87//165 59//165 42//165 47//165
f 86//166 58//166 47//166 46//166
f 110//167 72//167 111//167
f 72//168 109//168 111//168
f 107//169 106//169 52//169
f 106//170 51//170 52//170
f 26//171 105//171 104//171
f 103//172 26//172 104//172
f 26//173 20//173 105//173
f 103//174 19//174 20//174
f 26//175 103//175 20//175
f 1//176 98//176 13//176
f 98//177 90//177 13//177
f 4//178 91//178 3//178
f 91//179 1//179 3//179
f 82//180 63//180 62//180 100//180
f 27//181 103//181 102//181
f 27//182 18//182 103//182
f 18//183 19//183 103//183
f 91//184 22//184 1//184
f 22//185 98//185 1//185
f 22//186 90//186 98//186
f 22//187 91//187 90//187
f 16//188 85//188 84//188
f 85//189 10//189 11//189
f 18//190 85//190 11//190
f 93//191 96//191 17//191
f 96//192 8//192 17//192
f 96//193 6//193 8//193
f 85//194 16//194 10//194
f 96//195 89//195 6//195
f 90//196 97//196 100//196 13//196
f 12//197 91//197 4//197
f 12//198 88//198 91//198
f 85//199 18//199 27//199
