# Blender v2.93.3 OBJ File: ''
# www.blender.org
mtllib link0.mtl
o Link0
v 0.039908 -0.072195 -0.000721
v 0.042417 -0.069604 0.012787
v 0.019738 0.078988 0.012505
v 0.015512 0.081784 -0.000545
v 0.040665 0.072337 -0.000513
v 0.060706 0.056768 -0.001051
v 0.069646 0.042925 0.011576
v 0.082920 0.003535 -0.000432
v 0.079956 -0.022625 -0.000649
v 0.059430 -0.058727 -0.001161
v -0.003844 -0.080977 0.014549
v -0.016827 -0.081908 -0.000547
v 0.022435 -0.078336 0.013098
v 0.080793 -0.004672 0.015315
v 0.073891 -0.034239 0.012798
v 0.061736 0.005729 0.148787
v 0.053972 -0.032998 0.148786
v 0.062539 -0.050319 0.016600
v 0.019674 -0.080263 -0.000544
v 0.019645 -0.058673 0.148781
v -0.008671 0.061563 0.148786
v 0.031809 0.054404 0.148786
v 0.055101 0.027105 0.148784
v 0.077546 0.023542 0.014321
v 0.048502 0.065728 0.014156
v -0.038409 -0.073421 -0.001000
v -0.060793 -0.056659 -0.001061
v -0.064536 -0.050553 0.012627
v -0.082920 -0.003535 -0.000432
v -0.079956 0.022625 -0.000649
v -0.071046 0.039791 0.014035
v -0.051323 0.063339 0.013339
v -0.050345 0.066636 -0.001011
v -0.005847 0.081197 0.011540
v -0.013157 0.082185 -0.000426
v -0.030871 0.075338 0.012935
v -0.022909 0.079661 -0.000679
v -0.080793 0.004672 0.015315
v -0.062797 0.007935 0.148788
v -0.039043 0.049079 0.148790
v -0.021990 -0.058941 0.148783
v -0.052183 -0.033720 0.148786
v -0.077537 -0.023638 0.014270
v -0.036746 -0.072097 0.015681
v -0.052710 0.063480 -0.001186
v -0.039842 0.072096 -0.001145
v -0.061273 0.055362 -0.000523
v -0.072235 0.040693 -0.002148
v -0.065242 -0.050653 -0.001304
v -0.072096 -0.039840 -0.001123
v -0.052265 -0.064036 -0.001211
v -0.038273 -0.073145 -0.001730
v 0.052129 -0.063980 -0.001177
v 0.040600 -0.071819 -0.001054
v 0.072235 -0.040693 -0.002148
v 0.065242 0.050653 -0.001304
v 0.072096 0.039840 -0.001123
v 0.052265 0.064036 -0.001211
v -0.060677 0.000886 0.148791
v -0.055998 0.025492 0.148786
v -0.050006 0.035948 0.148787
v -0.029263 0.054198 0.148787
v -0.014332 0.060091 0.148789
v 0.002134 0.061482 0.148786
v 0.014210 0.059930 0.148786
v 0.049240 0.037256 0.148789
v 0.056127 0.025214 0.148787
v 0.060400 0.012684 0.148787
v 0.061552 -0.002411 0.148787
v 0.059877 -0.014472 0.148787
v 0.040788 -0.046240 0.148787
v 0.029263 -0.054198 0.148787
v 0.009380 -0.060949 0.148787
v -0.003195 -0.061480 0.148787
v -0.036185 -0.049849 0.148786
v -0.049240 -0.037256 0.148789
v -0.056127 -0.025214 0.148787
v -0.060400 -0.012684 0.148787
v 0.038783 0.073571 -0.001076
v 0.027494 0.077792 -0.000655
v 0.036098 0.074921 -0.001978
v -0.004562 0.082395 0.000509
v -0.030159 0.057919 -0.001987
v 0.078630 0.028477 -0.002428
v 0.072001 0.040288 -0.000528
v 0.076054 -0.032030 -0.000598
v 0.081848 0.009777 -0.000674
v -0.014672 -0.081586 -0.000945
v -0.030651 -0.076564 -0.000644
v 0.003727 -0.082487 0.000474
v 0.039615 -0.072340 -0.000571
v 0.024829 -0.079520 -0.002116
v -0.076054 0.032030 -0.000598
v -0.078630 -0.028477 -0.002429
v -0.072001 -0.040288 -0.000528
v -0.081848 -0.009777 -0.000674
v 0.000003 0.081334 0.010794
v 0.008136 0.080618 0.012401
v 0.012505 0.082018 -0.001277
v -0.032818 0.075728 -0.000607
v 0.082238 -0.006431 -0.000621
v -0.082238 0.006431 -0.000621
vn -0.2507 0.9579 0.1399
vn 0.4047 -0.9036 0.1404
vn -0.0945 0.9858 0.1391
vn -0.0225 0.2188 -0.9755
vn -0.0309 0.2173 -0.9756
vn 0.0001 -0.0002 -1.0000
vn 0.0590 0.9882 0.1413
vn -0.0252 0.9942 0.1050
vn 0.2095 0.7574 -0.6185
vn 0.2012 0.7581 -0.6203
vn -0.0130 0.0554 -0.9984
vn -0.0133 0.0639 -0.9979
vn -0.0245 0.1161 -0.9929
vn -0.0163 0.1184 -0.9928
vn -0.2269 0.5571 -0.7988
vn -0.3672 0.9267 0.0795
vn -0.2762 0.9508 0.1403
vn -0.3631 0.9200 0.1475
vn -0.0002 0.0002 1.0000
vn 0.0006 -0.0004 1.0000
vn 0.0000 0.0001 1.0000
vn 0.1261 0.9814 0.1447
vn 0.0942 0.9853 0.1424
vn 0.1980 0.9696 0.1436
vn 0.3153 0.9437 0.1001
vn 0.3160 0.9487 -0.0038
vn 0.3297 0.9378 0.1091
vn 0.3508 0.9265 0.1361
vn 0.4087 0.9027 0.1345
vn 0.5169 0.7370 -0.4354
vn 0.1469 0.1492 -0.9778
vn 0.1292 0.1279 -0.9833
vn -0.0012 0.0086 -1.0000
vn -0.0060 0.0240 -0.9997
vn -0.0128 0.0506 -0.9986
vn -0.0585 0.0920 -0.9940
vn -0.0674 0.1054 -0.9921
vn -0.4608 0.8871 0.0272
vn -0.0160 0.0484 -0.9987
vn -0.8814 -0.4517 0.1385
vn 0.0004 -0.0002 1.0000
vn -0.0007 0.0003 1.0000
vn -0.0008 0.0003 1.0000
vn -0.0005 0.0003 1.0000
vn -0.0026 -0.0003 1.0000
vn -0.0009 -0.0003 1.0000
vn -0.0001 -0.0002 1.0000
vn -0.0018 -0.0006 1.0000
vn 0.0003 0.0000 1.0000
vn 0.0002 0.0000 1.0000
vn -0.0003 -0.0003 1.0000
vn 0.0000 -0.0001 1.0000
vn 0.0005 0.0005 1.0000
vn -0.0003 -0.0006 1.0000
vn 0.0000 -0.0000 1.0000
vn 0.0001 0.0000 1.0000
vn -0.0002 0.0012 1.0000
vn 0.0001 -0.0004 1.0000
vn 0.2964 0.9441 0.1441
vn 0.6939 0.7053 0.1454
vn 0.4877 0.8628 0.1330
vn 0.5244 0.8455 0.1007
vn 0.5713 0.8096 -0.1347
vn 0.5832 0.8105 0.0536
vn 0.6498 0.7563 0.0758
vn 0.1478 0.1502 -0.9775
vn 0.8021 0.5917 0.0808
vn 0.8354 0.5480 0.0432
vn 0.8183 0.5144 -0.2567
vn 0.7925 0.4964 -0.3544
vn 0.8274 0.5042 -0.2475
vn 0.8746 0.4803 0.0655
vn 0.9604 -0.2397 0.1421
vn 0.9495 0.2789 0.1436
vn 0.9770 0.1790 0.1160
vn 0.9856 0.1689 -0.0071
vn 0.3810 -0.0085 -0.9245
vn 0.2367 -0.0258 -0.9712
vn 0.0029 -0.0043 -1.0000
vn 0.4098 -0.9045 0.1182
vn -0.2367 0.0258 -0.9712
vn -0.2726 0.0367 -0.9614
vn -0.9157 0.3805 -0.1294
vn -0.9053 0.4152 0.0896
vn -0.8025 0.5896 0.0918
vn -0.5065 0.4594 -0.7297
vn -0.1201 0.1443 -0.9822
vn -0.6112 0.7794 0.1375
vn -0.7286 0.6712 0.1367
vn 0.5930 -0.7924 0.1432
vn -0.8581 0.4917 0.1480
vn -0.9807 -0.1370 0.1396
vn -0.9788 0.1596 0.1281
vn -0.9910 0.0004 0.1336
vn 0.9762 0.1679 0.1370
vn -0.9486 -0.2820 0.1438
vn -0.9363 -0.3193 0.1462
vn -0.9230 0.3579 0.1411
vn -0.7603 -0.6327 0.1472
vn -0.6867 -0.7119 0.1467
vn -0.5339 -0.8336 0.1416
vn -0.6683 -0.7300 0.1429
vn -0.6463 -0.7501 0.1402
vn -0.5705 -0.8097 0.1377
vn 0.0592 0.9910 0.1203
vn 0.0578 0.9920 0.1120
vn -0.0962 -0.9850 0.1435
vn 0.0418 -0.9888 0.1434
vn 0.9157 0.3750 0.1444
vn 0.0651 -0.9879 0.1410
vn 0.0031 0.9899 0.1420
vn 0.1558 -0.9778 0.1403
vn 0.7011 -0.6981 0.1453
vn 0.8123 -0.5692 0.1272
vn 0.8119 -0.5698 0.1273
vn 0.8471 -0.5156 0.1288
vn 0.9349 -0.3262 0.1399
vn -0.2477 -0.9588 0.1389
vn 0.9802 -0.1361 0.1436
vn 0.9895 -0.0223 0.1430
vn 0.9900 0.0128 0.1404
vn -0.7678 0.6253 0.1392
vn 0.8693 0.4721 0.1466
vn 0.8565 0.4944 0.1478
vn 0.7686 0.6242 0.1401
vn 0.6965 0.7028 0.1448
vn 0.9774 0.1726 0.1220
vn 0.9928 -0.0698 0.0977
vn 0.9848 -0.1390 0.1046
vn 0.2726 -0.0367 -0.9614
vn 0.9157 -0.3805 -0.1294
vn 0.9070 -0.4139 0.0782
vn 0.8120 -0.5696 0.1275
vn 0.1040 -0.1278 -0.9863
vn 0.1514 -0.2076 -0.9664
vn 0.2393 -0.3661 -0.8993
vn 0.4419 -0.8926 -0.0893
vn 0.4380 -0.8989 -0.0139
vn -0.4765 0.8681 0.1391
vn 0.1727 -0.9795 0.1034
vn -0.0215 -0.1571 -0.9873
vn -0.0214 -0.1516 -0.9882
vn -0.0087 -0.1510 -0.9885
vn -0.0085 -0.0233 -0.9997
vn -0.1133 -0.1178 -0.9866
vn -0.1178 -0.1211 -0.9856
vn -0.7925 -0.4964 -0.3544
vn -0.8274 -0.5042 -0.2475
vn -0.8735 -0.4694 0.1294
vn -0.9770 -0.1790 0.1158
vn -0.9856 -0.1690 -0.0070
vn -0.3810 0.0085 -0.9245
vn -0.9928 0.0698 0.0977
vn -0.9848 0.1390 0.1046
vn -0.9180 0.3802 0.1125
vn -0.9774 -0.1726 0.1219
vn -0.8352 -0.5481 0.0462
vn -0.8036 -0.5934 0.0450
vn -0.3587 -0.9258 0.1194
vn -0.5579 -0.8210 0.1208
vn -0.3776 -0.9193 0.1106
vn -0.1432 -0.1457 -0.9789
vn -0.5134 -0.7667 -0.3855
vn -0.0325 -0.9955 0.0893
vn -0.3292 -0.8586 -0.3930
vn -0.1102 -0.3930 -0.9129
vn -0.1047 -0.3925 -0.9138
vn 0.1442 -0.9835 0.1097
vn 0.4749 -0.8764 0.0799
vn 0.5026 -0.8615 0.0719
vn 0.5617 -0.8253 0.0583
vn 0.5821 -0.8093 0.0789
vn 0.9204 -0.3814 0.0857
vn -0.3310 -0.8607 -0.3870
vn -0.8183 -0.5144 -0.2567
vn 0.0313 0.9956 0.0888
vn 0.0365 0.9977 0.0571
vn 0.0092 0.9926 -0.1211
vn -0.0007 0.9771 -0.2129
vn -0.4602 0.8831 0.0916
vn -0.7112 0.6941 0.1110
vn 0.1369 -0.9904 -0.0190
vn 0.1406 -0.9900 -0.0108
vn 0.1490 -0.9886 -0.0224
vn 0.0158 -0.7293 -0.6840
vn 0.0066 -0.7908 -0.6121
vn 0.0300 -0.7237 -0.6895
vn 0.0075 -0.7974 -0.6034
usemtl robot
s off
f 63//1 21//1 35//1 37//1
f 2//2 72//2 20//2 13//2
f 21//3 34//3 35//3
f 99//4 37//5 35//5
f 94//6 48//6 84//6 92//6
f 64//7 98//7 97//7
f 34//8 97//8 82//8 35//8
f 4//9 81//9 99//10
f 81//11 46//11 99//12
f 46//13 37//13 99//14
f 46//15 100//15 37//15
f 100//16 36//16 37//16
f 36//17 63//17 37//17
f 36//18 62//18 63//18
f 62//19 59//19 63//19
f 59//20 21//20 63//20
f 59//21 64//21 21//21
f 65//22 4//22 64//22
f 4//23 98//23 64//23
f 59//21 65//21 64//21
f 65//24 3//24 4//24
f 3//25 80//25 4//25
f 80//26 81//26 4//26
f 80//27 3//27 81//27
f 3//28 22//28 81//28
f 22//29 79//29 81//29
f 79//30 58//30 81//30
f 58//31 56//31 81//31
f 56//32 84//32 81//32
f 84//33 48//33 81//33
f 48//34 83//34 81//34
f 83//35 46//35 81//35
f 48//36 45//36 46//36
f 45//37 33//37 46//37
f 33//38 100//38 46//38
f 83//39 48//39 46//39
f 94//40 28//40 42//40 77//40
f 40//41 59//41 62//41
f 40//42 61//42 59//42
f 61//43 60//43 59//43
f 60//44 39//44 59//44
f 39//45 78//45 59//45
f 78//46 77//46 59//46
f 77//47 42//47 59//47
f 42//48 76//48 59//48
f 76//49 75//49 59//49
f 75//50 41//50 59//50
f 41//51 74//51 59//51
f 74//52 73//52 59//52
f 73//53 20//53 59//53
f 20//54 72//54 59//54
f 72//55 71//55 59//55
f 71//56 17//56 59//56
f 17//52 70//52 59//52
f 70//55 69//55 59//55
f 69//52 16//52 59//52
f 16//21 68//21 59//21
f 68//55 67//55 59//55
f 67//57 23//57 59//57
f 23//58 66//58 59//58
f 66//21 22//21 59//21
f 22//21 65//21 59//21
f 22//59 3//59 65//59
f 66//60 25//60 22//60
f 25//61 79//61 22//61
f 25//62 5//62 79//62
f 5//63 58//63 79//63
f 5//64 25//64 58//64
f 25//65 6//65 58//65
f 6//66 56//66 58//66
f 6//67 7//67 56//67
f 7//68 85//68 56//68
f 85//69 57//69 56//69
f 57//70 84//70 56//70
f 57//71 85//71 84//71
f 85//72 7//72 84//72
f 9//73 14//73 70//73 17//73
f 68//74 24//74 84//74
f 24//75 87//75 84//75
f 87//76 8//76 84//76
f 8//77 101//77 84//77
f 101//78 55//78 84//78
f 55//79 92//79 84//79
f 2//80 13//80 92//80 91//80
f 94//81 102//81 48//81
f 102//82 30//82 48//82
f 30//83 93//83 48//83
f 93//84 31//84 48//84
f 31//85 47//85 48//85
f 47//86 33//86 48//86
f 33//87 45//87 48//87
f 32//88 40//88 33//88
f 32//89 47//89 40//89
f 2//90 10//90 71//90 72//90
f 31//91 60//91 61//91
f 29//92 43//92 78//92 39//92
f 30//93 38//93 39//93
f 38//94 29//94 39//94
f 24//95 68//95 16//95 8//95
f 43//96 94//96 78//96
f 94//97 77//97 78//97
f 30//98 39//98 60//98 31//98
f 28//99 76//99 42//99
f 28//100 75//100 76//100
f 44//101 41//101 75//101
f 28//102 27//102 75//102
f 27//103 51//103 75//103
f 51//104 44//104 75//104
f 4//105 99//106 97//105 98//105
f 12//107 11//107 74//107
f 11//108 73//108 74//108
f 67//109 68//109 84//109 7//109
f 11//110 90//110 73//110
f 21//111 64//111 97//111 34//111
f 13//112 20//112 73//112 90//112
f 10//113 17//113 71//113
f 10//114 18//114 17//114
f 18//115 55//115 17//115
f 55//116 15//116 17//116
f 15//117 9//117 17//117
f 12//118 74//118 41//118 44//118
f 14//119 69//119 70//119
f 14//120 16//120 69//120
f 14//121 8//121 16//121
f 47//122 31//122 61//122 40//122
f 7//123 23//123 67//123
f 7//124 66//124 23//124
f 7//125 6//125 66//125
f 6//126 25//126 66//126
f 8//127 87//127 24//127
f 14//128 101//128 8//128
f 14//129 9//129 101//129
f 9//130 55//130 101//130
f 9//131 86//131 55//131
f 86//132 15//132 55//132
f 18//133 10//133 55//133
f 10//134 92//134 55//134
f 10//135 53//135 92//135
f 53//136 54//136 92//136
f 54//137 1//137 92//137
f 1//138 91//138 92//138
f 40//139 62//139 36//139 33//139
f 13//140 19//140 92//140
f 88//141 52//142 92//143
f 52//144 94//144 92//144
f 52//145 51//145 94//145
f 51//146 49//146 94//146
f 49//147 50//147 94//147
f 50//148 95//148 94//148
f 95//149 28//149 94//149
f 43//150 96//150 94//150
f 96//151 29//151 94//151
f 29//152 102//152 94//152
f 29//153 38//153 102//153
f 38//154 30//154 102//154
f 31//155 93//155 30//155
f 96//156 43//156 29//156
f 95//157 49//157 28//157
f 49//158 27//158 28//158
f 89//159 12//159 44//159
f 51//160 26//160 44//160
f 26//161 89//161 44//161
f 49//162 51//162 27//162
f 52//163 26//163 51//163
f 90//164 11//164 12//164
f 89//165 52//165 12//165
f 52//166 88//167 12//166
f 19//168 13//168 90//168
f 91//169 1//169 2//169
f 1//170 54//170 2//170
f 54//171 53//171 2//171
f 53//172 10//172 2//172
f 86//173 9//173 15//173
f 89//174 26//174 52//174
f 95//175 50//175 49//175
s 1
f 97//176 99//177 82//178
f 99//177 35//179 82//178
f 33//180 36//180 100//180
f 47//181 32//181 33//181
f 19//182 90//183 92//184
f 90//185 88//186 92//187
f 88//186 90//185 12//188
