# Blender v2.93.3 OBJ File: ''
# www.blender.org
mtllib link6.mtl
o Link6
v -0.036049 0.059502 -0.034418
v -0.037815 0.000000 -0.032821
v -0.045422 0.059507 -0.019372
v -0.047656 0.000000 -0.015440
v -0.049549 0.059505 -0.004319
v -0.049816 0.000001 -0.003064
v -0.004394 0.000001 -0.049919
v -0.006594 0.059511 -0.048907
v -0.021592 0.059492 -0.045092
v -0.019795 0.000002 -0.045940
v 0.042817 0.027512 0.136676
v -0.050001 0.031630 0.141965
v -0.049997 0.023787 0.129623
v 0.038980 0.059484 -0.031278
v 0.036030 0.000001 -0.034485
v 0.033788 0.059503 -0.036641
v 0.021358 0.000001 -0.045397
v 0.019701 0.059508 -0.045287
v 0.009177 0.020647 0.121770
v -0.026382 0.018915 0.113956
v 0.045446 -0.000000 -0.021057
v -0.050006 0.020261 0.113950
v 0.051927 0.095608 0.152025
v -0.050000 0.107178 0.143064
v -0.050000 0.091129 0.155468
v 0.043340 0.080784 0.158879
v -0.049999 0.074578 0.159647
v 0.051954 0.058127 0.157762
v 0.041732 0.042659 0.152096
v 0.052044 0.036738 0.145738
v -0.049997 0.058510 0.158564
v -0.049995 0.040353 0.150602
v 0.051985 0.023528 0.125760
v 0.052042 0.073505 0.158582
v 0.051937 0.107145 0.142362
v 0.052019 0.111665 0.135200
v 0.051869 0.119574 0.111212
v 0.042812 0.115424 0.131206
v -0.049989 0.118957 0.099124
v -0.049999 0.119612 0.115142
v -0.049999 0.116304 0.128653
v 0.051886 0.115718 0.091513
v 0.052031 0.118465 0.105733
v -0.032810 -0.000019 0.037597
v -0.042389 0.000001 0.026806
v -0.014517 -0.000102 0.047889
v -0.048259 0.000001 0.012415
v 0.006768 -0.000089 0.049273
v -0.050007 0.022498 0.094442
v -0.050011 0.029997 0.079972
v -0.050010 0.047160 0.065373
v -0.050009 0.066104 0.060325
v -0.049999 0.112227 0.083047
v 0.006957 0.016000 -0.048381
v 0.050302 -0.000001 -0.001252
v 0.022652 -0.000054 0.044025
v 0.049805 0.059496 -0.003952
v 0.047224 -0.000007 0.016555
v 0.034493 -0.000019 0.036000
v -0.002288 0.077806 -0.038916
v -0.001229 0.072163 -0.047052
v 0.013435 0.070759 -0.046036
v 0.003968 0.059518 -0.049904
v 0.004430 0.076580 -0.042698
v 0.032988 0.071921 -0.034346
v 0.022888 0.059531 -0.043760
v 0.025839 0.078669 -0.026388
v -0.037264 0.071856 -0.029283
v -0.023299 0.070763 -0.041924
v -0.032509 0.059518 -0.038070
v -0.019649 0.076834 -0.037341
v -0.014778 0.059531 -0.047126
v -0.047217 0.070228 -0.010673
v 0.043542 0.074537 -0.013033
v -0.035314 0.077460 -0.019912
v -0.043061 0.059552 -0.024029
v 0.046978 0.068025 -0.013673
v 0.038032 0.059516 -0.032560
v 0.046986 0.059535 -0.015719
v -0.049768 0.059541 0.001402
v 0.071896 0.080148 0.101086
v 0.068758 0.067416 0.139638
v 0.070310 0.050053 0.120162
v 0.067412 0.039567 0.091690
v 0.070242 0.092314 0.117704
v 0.062350 0.075305 0.153047
v 0.061681 0.052038 0.150506
v 0.064444 0.039082 0.136872
v 0.065274 0.031678 0.118655
v 0.060893 0.024584 0.112482
v 0.068467 0.068129 0.079379
v 0.064925 0.103539 0.087080
v 0.064454 0.110310 0.119019
v 0.064690 0.093372 0.143247
v 0.052335 0.066786 0.159479
v 0.057647 0.034475 0.140860
v 0.051909 0.049433 0.153699
v 0.058257 0.116303 0.103108
v 0.059610 0.111519 0.130365
v 0.052865 0.092993 0.153901
v 0.052047 0.029707 0.139157
vn -0.9642 0.0187 -0.2644
vn -0.9851 0.0008 -0.1719
vn -0.0069 -0.8440 0.5364
vn 0.5968 -0.0066 -0.8024
vn -0.0142 -0.9606 0.2774
vn 0.8187 -0.0097 -0.5741
vn -1.0000 -0.0021 0.0010
vn -0.0001 0.6115 0.7912
vn -0.0083 0.2448 0.9695
vn 0.0061 -0.3475 0.9377
vn -0.0048 -0.4016 0.9158
vn 0.0057 -0.9131 0.4077
vn 0.0055 0.6421 0.7666
vn 0.0287 -0.9310 0.3639
vn -0.0012 0.9992 -0.0408
vn 0.0083 0.9783 0.2069
vn 0.0027 0.9713 0.2378
vn 0.0168 0.9812 -0.1921
vn 0.1122 0.8397 0.5314
vn 0.2196 0.9575 -0.1872
vn -0.0070 -1.0000 0.0043
vn -0.0054 -1.0000 0.0022
vn -0.0034 -1.0000 0.0003
vn -0.0024 -1.0000 -0.0004
vn -0.0015 -1.0000 -0.0008
vn -0.0007 -1.0000 -0.0011
vn -0.0003 -1.0000 -0.0011
vn 0.0002 -1.0000 -0.0010
vn 0.0007 -1.0000 -0.0009
vn -0.0172 -0.9617 0.2736
vn -0.1311 -0.9654 0.2253
vn -0.1729 -0.9609 0.2163
vn -0.2289 -0.9524 0.2014
vn -0.4187 -0.8919 0.1708
vn -0.8579 -0.5066 0.0863
vn -1.0000 -0.0058 -0.0006
vn -1.0000 -0.0030 -0.0013
vn -1.0000 -0.0015 -0.0018
vn -1.0000 -0.0006 -0.0024
vn 0.0061 -0.7036 0.7106
vn 0.1729 -0.0280 -0.9845
vn 0.0015 -1.0000 -0.0004
vn 0.0023 -1.0000 0.0002
vn -0.0137 -0.9612 0.2754
vn -0.0167 -0.9616 0.2740
vn -1.0000 -0.0006 -0.0000
vn -1.0000 0.0001 0.0001
vn -1.0000 0.0000 -0.0000
vn -0.0067 0.8448 0.5350
vn 0.0044 0.8047 0.5936
vn 0.0019 -1.0000 -0.0000
vn 0.0045 -1.0000 0.0024
vn 0.1537 -0.9627 0.2226
vn 0.2903 -0.9380 0.1895
vn 0.0009 -1.0000 -0.0007
vn 0.0392 -0.9611 0.2736
vn 0.0841 -0.9650 0.2482
vn 0.0911 0.2546 -0.9628
vn 0.2910 0.7732 -0.5634
vn 0.4876 0.2403 -0.8393
vn 0.2738 0.8408 -0.4670
vn 0.1131 0.6202 -0.7763
vn -0.6342 0.2713 -0.7240
vn -0.2086 0.6660 -0.7162
vn -0.4523 0.6943 -0.5597
vn -0.2341 0.2566 -0.9377
vn -0.8682 0.2190 -0.4452
vn -0.4147 0.8164 -0.4020
vn 0.7757 0.4527 -0.4397
vn -0.1294 0.7752 -0.6183
vn -0.0905 0.8890 -0.4489
vn 0.9967 -0.0014 0.0807
vn 0.9933 -0.0944 -0.0663
vn 0.9961 0.0170 0.0867
vn 0.8815 -0.0763 0.4660
vn 0.9196 -0.1744 0.3520
vn 0.9594 -0.1682 0.2264
vn 0.9496 -0.2729 0.1542
vn 0.9645 -0.2642 -0.0009
vn 0.9904 -0.0840 -0.1100
vn 0.9674 0.2405 -0.0798
vn 0.9496 0.3091 -0.0516
vn 0.9383 0.2877 0.1920
vn 0.9708 0.1235 0.2059
vn 0.9182 0.0903 0.3856
vn 0.5985 -0.1040 0.7943
vn 0.6618 -0.4719 0.5825
vn 0.6676 -0.6787 0.3062
vn 0.6522 -0.6895 0.3149
vn 0.8196 0.5628 -0.1073
vn 0.8362 0.4532 0.3087
vn 0.6322 0.3046 0.7125
vn 0.9717 -0.0033 -0.2362
vn 0.9664 0.1276 -0.2233
vn 0.3408 0.2060 0.9173
vn 0.9386 -0.3441 -0.0263
vn -0.0039 0.9579 -0.2869
vn 0.9722 0.0663 -0.2246
vn 0.9709 0.0569 -0.2324
vn 0.9444 0.2190 -0.2454
vn 0.5900 0.7331 -0.3384
vn 0.8336 -0.5508 0.0414
vn -0.2373 0.0042 -0.9714
vn 0.6276 -0.7710 0.1082
vn 0.8890 0.0180 -0.4575
vn 0.8038 -0.0078 -0.5948
vn 0.7840 0.2362 -0.5740
vn 0.4025 0.8441 -0.3542
vn 0.5121 0.7845 -0.3499
vn 0.6821 0.1752 -0.7100
vn 0.5376 0.1867 -0.8223
vn 0.5545 0.7582 -0.3429
vn 0.2521 0.9499 -0.1848
vn 0.5496 0.8296 0.0983
vn 0.2515 0.9498 -0.1861
vn -1.0000 0.0002 0.0000
vn 0.5791 0.5735 0.5795
vn 0.5496 0.5493 0.6295
vn 0.3491 0.9059 0.2399
vn 0.4498 0.1374 0.8825
vn 0.5084 -0.1889 0.8401
vn 0.3786 -0.3935 0.8377
vn 0.8443 0.2182 -0.4894
vn 0.5761 -0.7491 0.3270
vn 0.3754 -0.9093 0.1796
vn 0.6931 0.0000 -0.7208
vn 0.1588 0.9313 -0.3277
vn 0.0147 0.9585 -0.2847
vn 0.4118 -0.4974 0.7636
vn 0.5468 0.0090 -0.8372
vn 0.4319 0.0137 -0.9018
vn 0.4241 0.1770 -0.8881
vn 0.2805 0.0925 -0.9554
vn 0.2293 0.9149 0.3323
vn 0.3372 0.7943 0.5053
vn 0.2483 0.6219 0.7427
vn 0.0018 0.5833 0.8123
vn 0.0074 0.3727 0.9279
vn 0.3384 -0.6430 0.6871
vn 0.5435 -0.7632 0.3495
vn 0.1482 0.1372 0.9794
vn 0.0051 0.0461 0.9989
vn -0.5712 -0.0135 -0.8207
vn 0.1382 -0.4199 0.8970
vn 0.2139 -0.5174 0.8286
vn 0.0578 -0.6822 0.7289
vn 0.1029 -0.9034 0.4162
vn 0.1792 -0.0221 -0.9836
vn 0.2816 0.0096 -0.9595
vn -0.3508 0.8700 -0.3465
vn -0.4621 0.8182 -0.3422
vn -1.0000 0.0013 0.0001
vn -1.0000 -0.0013 -0.0006
vn 0.1661 -0.0231 -0.9858
vn -0.0940 0.0134 -0.9955
vn -0.0926 0.1828 -0.9788
vn -0.2066 0.2271 -0.9517
vn -1.0000 -0.0001 -0.0002
vn -1.0000 -0.0000 0.0002
vn -1.0000 -0.0001 0.0003
vn 0.0038 -0.7559 0.6547
vn 0.0063 -0.7042 0.7099
vn -1.0000 -0.0007 0.0013
vn -1.0000 0.0011 -0.0042
vn -0.9993 0.0037 -0.0382
vn -0.8919 0.0036 -0.4522
vn 0.9813 -0.0384 -0.1886
vn -0.7181 0.0026 -0.6960
vn -0.8549 0.0013 -0.5188
vn -0.2860 0.0050 -0.9582
vn 0.0002 -0.1125 0.9937
vn -0.5617 0.7563 -0.3355
vn -0.6910 0.6517 -0.3126
vn -0.9829 0.1553 -0.0988
vn -0.9977 0.0552 -0.0385
vn -1.0000 0.0024 -0.0044
vn -0.2801 0.2202 -0.9344
vn -0.5344 0.1528 -0.8313
vn -0.8192 0.1496 -0.5536
vn -0.7020 0.2135 -0.6795
vn -0.9631 0.0530 -0.2640
vn -0.8726 0.2112 -0.4404
usemtl robot
s off
f 3//1 4//1 5//1
f 5//2 4//2 6//2
f 11//3 12//3 13//3
f 16//4 15//4 17//4
f 19//5 13//5 20//5
f 15//6 14//6 21//6
f 22//7 13//7 12//7
f 23//8 24//8 25//8
f 26//9 25//9 27//9
f 28//10 31//10 29//10
f 29//11 31//11 32//11
f 19//12 11//12 13//12
f 23//13 35//13 24//13
f 33//14 11//14 19//14
f 37//15 39//15 40//15
f 37//16 40//16 38//16
f 38//17 40//17 41//17
f 37//18 42//18 39//18
f 35//19 36//19 38//19
f 42//20 37//20 43//20
f 44//21 45//21 46//21
f 45//22 47//22 46//22
f 47//23 6//23 46//23
f 6//24 4//24 46//24
f 4//25 2//25 46//25
f 2//26 10//26 46//26
f 10//27 7//27 46//27
f 7//28 17//28 46//28
f 17//29 15//29 46//29
f 48//30 13//30 46//30
f 13//31 44//31 46//31
f 13//32 22//32 44//32
f 22//33 45//33 44//33
f 22//34 47//34 45//34
f 22//35 6//35 47//35
f 22//36 49//36 6//36
f 49//37 50//37 6//37
f 50//38 51//38 6//38
f 51//39 52//39 6//39
f 29//40 32//40 12//40
f 54//41 17//41 7//41
f 55//42 48//42 21//42
f 55//43 56//43 48//43
f 19//44 20//44 48//44
f 20//45 13//45 48//45
f 50//46 49//46 22//46
f 25//47 24//47 50//47
f 52//48 51//48 50//48
f 38//49 41//49 24//49
f 38//50 24//50 35//50
f 58//51 56//51 55//51
f 58//52 59//52 56//52
f 59//53 33//53 56//53
f 59//54 58//54 33//54
f 21//29 48//29 46//29
f 21//55 46//55 15//55
f 33//56 19//56 48//56
f 33//57 48//57 56//57
f 61//58 62//58 63//58
f 64//59 65//59 62//59
f 65//60 66//60 62//60
f 64//61 67//61 65//61
f 64//62 62//62 61//62
f 68//63 69//63 70//63
f 71//64 61//64 69//64
f 69//65 68//65 71//65
f 61//66 72//66 69//66
f 68//67 76//67 73//67
f 75//68 71//68 68//68
f 74//69 77//69 65//69
f 61//70 71//70 64//70
f 71//71 60//71 64//71
f 81//72 82//72 83//72
f 81//73 83//73 84//73
f 81//74 85//74 82//74
f 86//75 87//75 82//75
f 87//76 88//76 82//76
f 83//77 82//77 88//77
f 83//78 88//78 89//78
f 84//79 83//79 89//79
f 84//80 91//80 81//80
f 85//81 81//81 92//81
f 92//82 93//82 85//82
f 93//83 94//83 85//83
f 82//84 85//84 94//84
f 86//85 82//85 94//85
f 87//86 86//86 95//86
f 88//87 87//87 96//87
f 90//88 89//88 88//88
f 88//89 96//89 90//89
f 93//90 92//90 98//90
f 94//91 93//91 99//91
f 100//92 86//92 94//92
f 79//93 57//93 55//93 21//93
f 91//94 77//94 81//94
f 26//95 34//95 86//95 100//95
f 89//96 55//96 84//96
f 60//97 71//97 39//97 42//97
f 57//98 77//98 91//98
f 57//99 79//99 77//99
f 74//100 92//100 81//100 77//100
f 74//101 98//101 92//101
f 90//102 55//102 89//102
f 72//103 8//103 7//103 10//103
f 90//104 58//104 55//104
f 21//105 14//105 79//105
f 15//106 78//106 14//106
f 78//107 65//107 14//107
f 67//108 42//108 65//108
f 42//109 74//109 65//109
f 78//110 16//110 65//110
f 16//111 66//111 65//111
f 42//112 98//112 74//112
f 43//113 37//113 98//113
f 37//114 93//114 98//114
f 42//115 43//115 98//115
f 52//116 50//116 24//116 53//116
f 99//117 35//117 94//117
f 35//118 100//118 94//118
f 38//119 99//119 93//119 37//119
f 34//120 95//120 86//120
f 95//121 28//121 87//121
f 28//122 97//122 87//122
f 14//123 65//123 77//123 79//123
f 96//124 33//124 90//124
f 33//125 58//125 90//125
f 16//126 78//126 15//126
f 64//127 42//127 67//127
f 64//128 60//128 42//128
f 30//129 96//129 87//129 97//129
f 17//130 66//130 16//130
f 17//131 18//131 66//131
f 18//132 62//132 66//132
f 18//133 63//133 62//133
f 38//134 36//134 99//134
f 36//135 35//135 99//135
f 23//136 100//136 35//136
f 23//137 25//137 100//137
f 25//138 26//138 100//138
f 30//139 101//139 96//139
f 101//140 33//140 96//140
f 26//141 95//141 34//141
f 26//142 27//142 95//142
f 70//143 9//143 10//143 2//143
f 29//144 97//144 28//144
f 29//145 30//145 97//145
f 29//146 101//146 30//146
f 101//147 11//147 33//147
f 54//148 63//148 17//148
f 63//149 18//149 17//149
f 71//150 75//150 39//150
f 75//151 53//151 39//151
f 53//152 24//152 39//152
f 24//153 40//153 39//153
f 54//154 7//154 63//154
f 7//155 8//155 63//155
f 8//156 61//156 63//156
f 8//157 72//157 61//157
f 24//116 41//116 40//116
f 31//158 27//158 25//158
f 50//159 12//159 25//159
f 12//160 31//160 25//160
f 12//161 11//161 101//161
f 29//162 12//162 101//162
f 12//163 32//163 31//163
f 52//164 80//164 6//164
f 80//165 5//165 6//165
f 3//166 76//166 4//166
f 55//167 57//167 91//167 84//167
f 1//168 70//168 2//168
f 76//169 1//169 2//169 4//169
f 9//170 72//170 10//170
f 31//171 28//171 95//171 27//171
f 50//159 22//159 12//159
f 68//172 53//172 75//172
f 68//173 73//173 53//173
f 73//174 5//174 53//174
f 5//175 80//175 53//175
f 80//176 52//176 53//176
f 9//177 69//177 72//177
f 9//178 70//178 69//178
f 1//179 76//179 68//179
f 70//180 1//180 68//180
f 73//181 3//181 5//181
f 73//182 76//182 3//182
